<?xml version="1.0" encoding="UTF-8"?>
<!DOCTYPE svg PUBLIC "-//W3C//DTD SVG 1.0//EN" "http://www.w3.org/TR/2001/REC-SVG-20010904/DTD/svg10.dtd">
<svg xmlns="http://www.w3.org/2000/svg" xml:space="preserve" width="1024px" height="1024px" version="1.0" shape-rendering="geometricPrecision" text-rendering="geometricPrecision" image-rendering="optimizeQuality" fill-rule="evenodd" clip-rule="evenodd"
viewBox="0 0 1024 1024"
 xmlns:xlink="http://www.w3.org/1999/xlink" data-created-by="witha">
 <g id="Layer_x0020_1">
  <metadata id="CorelCorpID_0Corel-Layer"/>
  <polygon fill="#2B2A29" fill-rule="nonzero" points="512,341.22 503.07,349.8 502.09,348.78 512,339.26 "/>
  <polygon fill="#2B2A29" fill-rule="nonzero" points="512,682.78 503.07,674.2 502.09,675.22 512,684.74 "/>
  <polygon fill="#2B2A29" fill-rule="nonzero" points="503.58,346.93 511.46,354.46 510.49,355.49 502.6,347.95 "/>
  <polygon fill="#2B2A29" fill-rule="nonzero" points="503.58,677.07 511.46,669.54 510.49,668.51 502.6,676.05 "/>
  <polygon fill="#2B2A29" fill-rule="nonzero" points="511.46,355.49 497.24,369.07 496.26,368.04 510.49,354.46 "/>
  <polygon fill="#2B2A29" fill-rule="nonzero" points="511.46,668.51 497.24,654.93 496.26,655.96 510.49,669.54 "/>
  <polygon fill="#2B2A29" fill-rule="nonzero" points="510.98,365.75 497.75,365.75 497.75,364.33 510.98,364.33 "/>
  <polygon fill="#2B2A29" fill-rule="nonzero" points="510.98,658.25 497.75,658.25 497.75,659.67 510.98,659.67 "/>
  <path fill="#2B2A29" fill-rule="nonzero" d="M516.47 653.71c3.88,0 7.76,0 11.64,0l0 -1.43 -8.82 0 15.59 -20.58 -1.13 -0.85c-5.76,7.6 -11.54,15.28 -17.28,22.86z"/>
  <path fill="#2B2A29" fill-rule="nonzero" d="M516.47 370.29c3.88,0 7.76,0 11.64,0l0 1.43 -8.82 0 15.59 20.58 -1.13 0.85c-5.76,-7.6 -11.54,-15.28 -17.28,-22.86z"/>
  <path fill="#2B2A29" fill-rule="nonzero" d="M504.71 652.28l-8.82 0 0 1.43c3.89,0 7.78,0 11.67,0l-17.31 -22.86 -1.13 0.85 15.59 20.58z"/>
  <path fill="#2B2A29" fill-rule="nonzero" d="M504.71 371.72l-8.82 0 0 -1.43c3.89,0 7.78,0 11.67,0l-17.31 22.86 -1.13 -0.85 15.59 -20.58z"/>
  <polygon fill="#2B2A29" fill-rule="nonzero" points="511.36,351.76 501.41,351.76 501.41,350.34 511.36,350.34 "/>
  <polygon fill="#2B2A29" fill-rule="nonzero" points="511.36,672.24 501.41,672.24 501.41,673.66 511.36,673.66 "/>
  <polygon fill="#2B2A29" fill-rule="nonzero" points="495.75,375.44 512,440.17 512,446 494.37,375.78 "/>
  <polygon fill="#2B2A29" fill-rule="nonzero" points="495.75,648.56 512,583.83 512,578 494.37,648.22 "/>
  <polygon fill="#2B2A29" fill-rule="nonzero" points="512,383.54 485.34,409.46 484.35,408.45 511.51,382.05 512,382.56 "/>
  <polygon fill="#2B2A29" fill-rule="nonzero" points="512,640.46 485.34,614.54 484.35,615.55 511.51,641.95 512,641.44 "/>
  <polygon fill="#2B2A29" fill-rule="nonzero" points="488.84,395.38 509.16,394.13 480.86,425.24 479.81,424.28 505.76,395.76 488.92,396.79 "/>
  <polygon fill="#2B2A29" fill-rule="nonzero" points="488.84,628.62 509.16,629.87 480.86,598.76 479.81,599.72 505.76,628.24 488.92,627.21 "/>
  <path fill="#2B2A29" d="M497.94 472.89l-1.42 0 11.08 -48.77 1.42 0 -11.08 48.77zm-6.53 0.01l-1.43 0 16.36 -72 1.42 0 -16.35 72zm-3.3 -12.36l-1.71 0 19.53 -85.96 1.7 0 -19.52 85.96zm-17.4 1.65l-2.27 0 35.67 -120.91 2.27 0 -35.67 120.91z"/>
  <path fill="#2B2A29" d="M497.94 551.11l-1.42 0 11.08 48.77 1.42 0 -11.08 -48.77zm-6.53 -0.01l-1.43 0 16.36 72 1.42 0 -16.35 -72zm-3.3 12.36l-1.71 0 19.53 85.96 1.7 0 -19.52 -85.96zm-17.4 -1.65l-2.27 0 35.67 120.91 2.27 0 -35.67 -120.91z"/>
  <polygon fill="#2B2A29" fill-rule="nonzero" points="510.98,357.03 500.13,357.03 500.13,355.61 510.98,355.61 "/>
  <polygon fill="#2B2A29" fill-rule="nonzero" points="510.98,666.97 500.13,666.97 500.13,668.39 510.98,668.39 "/>
  <polygon fill="#2B2A29" fill-rule="nonzero" points="492.98,384.85 512,459.84 510.62,460.19 491.6,385.2 "/>
  <polygon fill="#2B2A29" fill-rule="nonzero" points="492.98,639.15 512,564.16 510.62,563.81 491.6,638.8 "/>
  <polygon fill="#2B2A29" fill-rule="nonzero" points="512,387.81 497,402.38 496.02,401.37 511.51,386.31 512,386.82 "/>
  <polygon fill="#2B2A29" fill-rule="nonzero" points="512,636.19 497,621.62 496.02,622.63 511.51,637.69 512,637.18 "/>
  <polygon fill="#2B2A29" fill-rule="nonzero" points="481.16,419.44 510.23,417.67 470.33,461.52 469.28,460.56 506.83,419.29 481.24,420.86 "/>
  <polygon fill="#2B2A29" fill-rule="nonzero" points="481.16,604.56 510.23,606.33 470.33,562.48 469.28,563.44 506.83,604.71 481.24,603.14 "/>
  <polygon fill="#2B2A29" fill-rule="nonzero" points="486.9,405.34 500.73,460.5 499.35,460.84 485.52,405.69 "/>
  <polygon fill="#2B2A29" fill-rule="nonzero" points="486.9,618.66 500.73,563.5 499.35,563.16 485.52,618.31 "/>
  <polygon fill="#2B2A29" fill-rule="nonzero" points="484.07,414.5 494.87,457.61 493.49,457.95 482.69,414.84 "/>
  <polygon fill="#2B2A29" fill-rule="nonzero" points="484.07,609.5 494.87,566.39 493.49,566.05 482.69,609.16 "/>
  <polygon fill="#2B2A29" points="512,297.09 513.31,299.46 513.31,325.71 512,325.71 510.69,325.71 510.69,299.46 "/>
  <polygon fill="#2B2A29" points="512,726.91 513.31,724.54 513.31,698.29 512,698.29 510.69,698.29 510.69,724.54 "/>
  <polygon fill="#2B2A29" points="512,341.28 513.02,341.28 513.02,366.14 512.69,460.01 512,460.09 511.31,460.01 510.98,366.14 510.98,341.28 "/>
  <polygon fill="#2B2A29" points="512,682.72 513.02,682.72 513.02,657.86 512.69,563.99 512,563.91 511.31,563.99 510.98,657.86 510.98,682.72 "/>
  <polygon fill="#2B2A29" fill-rule="nonzero" points="512,341.22 520.93,349.8 521.91,348.78 512,339.26 "/>
  <polygon fill="#2B2A29" fill-rule="nonzero" points="512,682.78 520.93,674.2 521.91,675.22 512,684.74 "/>
  <polygon fill="#2B2A29" fill-rule="nonzero" points="520.42,346.93 512.54,354.46 513.51,355.49 521.4,347.95 "/>
  <polygon fill="#2B2A29" fill-rule="nonzero" points="520.42,677.07 512.54,669.54 513.51,668.51 521.4,676.05 "/>
  <polygon fill="#2B2A29" fill-rule="nonzero" points="512.54,355.49 526.76,369.07 527.74,368.04 513.51,354.46 "/>
  <polygon fill="#2B2A29" fill-rule="nonzero" points="512.54,668.51 526.76,654.93 527.74,655.96 513.51,669.54 "/>
  <polygon fill="#2B2A29" fill-rule="nonzero" points="513.02,365.75 526.25,365.75 526.25,364.33 513.02,364.33 "/>
  <polygon fill="#2B2A29" fill-rule="nonzero" points="513.02,658.25 526.25,658.25 526.25,659.67 513.02,659.67 "/>
  <polygon fill="#2B2A29" fill-rule="nonzero" points="512.64,351.76 522.59,351.76 522.59,350.34 512.64,350.34 "/>
  <polygon fill="#2B2A29" fill-rule="nonzero" points="512.64,672.24 522.59,672.24 522.59,673.66 512.64,673.66 "/>
  <polygon fill="#2B2A29" fill-rule="nonzero" points="528.25,375.44 512,440.17 512,446 529.63,375.78 "/>
  <polygon fill="#2B2A29" fill-rule="nonzero" points="528.25,648.56 512,583.83 512,578 529.63,648.22 "/>
  <polygon fill="#2B2A29" fill-rule="nonzero" points="512,383.54 538.66,409.46 539.65,408.45 512.49,382.05 512,382.56 "/>
  <polygon fill="#2B2A29" fill-rule="nonzero" points="512,640.46 538.66,614.54 539.65,615.55 512.49,641.95 512,641.44 "/>
  <path fill="#2B2A29" d="M512 417.42l3.16 0 1.99 6.7 -5.15 0 -5.15 0 1.99 -6.7 3.16 0zm0 -24.73l-3.87 0 -2.44 8.21 6.31 0 6.31 0 -2.44 -8.21 -3.87 0zm0 -27.12l-4.25 0 -2.68 9.01 6.93 0 6.93 0 -2.68 -9.01 -4.25 0zm0 -40.23l-5.04 0 -4.74 15.94 9.78 0 9.78 0 -4.74 -15.94 -5.04 0z"/>
  <path fill="#2B2A29" d="M512 606.58l3.16 0 1.99 -6.7 -5.15 0 -5.15 0 1.99 6.7 3.16 0zm0 24.73l-3.87 0 -2.44 -8.21 6.31 0 6.31 0 -2.44 8.21 -3.87 0zm0 27.12l-4.25 0 -2.68 -9.01 6.93 0 6.93 0 -2.68 9.01 -4.25 0zm0 40.23l-5.04 0 -4.74 -15.94 9.78 0 9.78 0 -4.74 15.94 -5.04 0z"/>
  <polygon fill="#2B2A29" fill-rule="nonzero" points="535.16,395.38 514.84,394.13 543.14,425.24 544.19,424.28 518.24,395.76 535.08,396.79 "/>
  <polygon fill="#2B2A29" fill-rule="nonzero" points="535.16,628.62 514.84,629.87 543.14,598.76 544.19,599.72 518.24,628.24 535.08,627.21 "/>
  <path fill="#2B2A29" d="M526.06 472.89l1.42 0 -11.08 -48.77 -1.42 0 11.08 48.77zm6.53 0.01l1.43 0 -16.36 -72 -1.42 0 16.35 72zm3.3 -12.36l1.71 0 -19.53 -85.96 -1.7 0 19.52 85.96zm17.4 1.65l2.27 0 -35.67 -120.91 -2.27 0 35.67 120.91z"/>
  <path fill="#2B2A29" d="M526.06 551.11l1.42 0 -11.08 48.77 -1.42 0 11.08 -48.77zm6.53 -0.01l1.43 0 -16.36 72 -1.42 0 16.35 -72zm3.3 12.36l1.71 0 -19.53 85.96 -1.7 0 19.52 -85.96zm17.4 -1.65l2.27 0 -35.67 120.91 -2.27 0 35.67 -120.91z"/>
  <polygon fill="#2B2A29" fill-rule="nonzero" points="513.02,357.03 523.87,357.03 523.87,355.61 513.02,355.61 "/>
  <polygon fill="#2B2A29" fill-rule="nonzero" points="513.02,666.97 523.87,666.97 523.87,668.39 513.02,668.39 "/>
  <polygon fill="#2B2A29" fill-rule="nonzero" points="531.02,384.85 512,459.84 513.38,460.19 532.4,385.2 "/>
  <polygon fill="#2B2A29" fill-rule="nonzero" points="531.02,639.15 512,564.16 513.38,563.81 532.4,638.8 "/>
  <polygon fill="#2B2A29" fill-rule="nonzero" points="512,387.81 527,402.38 527.98,401.37 512.49,386.31 512,386.82 "/>
  <polygon fill="#2B2A29" fill-rule="nonzero" points="512,636.19 527,621.62 527.98,622.63 512.49,637.69 512,637.18 "/>
  <polygon fill="#2B2A29" fill-rule="nonzero" points="542.84,419.44 513.77,417.67 553.67,461.52 554.72,460.56 517.17,419.29 542.76,420.86 "/>
  <polygon fill="#2B2A29" fill-rule="nonzero" points="542.84,604.56 513.77,606.33 553.67,562.48 554.72,563.44 517.17,604.71 542.76,603.14 "/>
  <polygon fill="#2B2A29" fill-rule="nonzero" points="537.1,405.34 523.27,460.5 524.65,460.84 538.48,405.69 "/>
  <polygon fill="#2B2A29" fill-rule="nonzero" points="537.1,618.66 523.27,563.5 524.65,563.16 538.48,618.31 "/>
  <polygon fill="#2B2A29" fill-rule="nonzero" points="539.93,414.5 529.13,457.61 530.51,457.95 541.31,414.84 "/>
  <polygon fill="#2B2A29" fill-rule="nonzero" points="539.93,609.5 529.13,566.39 530.51,566.05 541.31,609.16 "/>
  <path fill="#2B2A29" d="M510.94 512l-510.94 498.98 0 13.02 13.02 0 498.98 -510.94 0 -1.06 -1.06 0zm2.12 0l510.94 498.98 0 13.02 -13.02 0 -498.98 -510.94 0 -1.06 1.06 0zm0 0l510.94 -498.98 0 -13.02 -13.02 0 -498.98 510.94 0 1.06 1.06 0zm-2.12 0l-510.94 -498.98 0 -13.02 13.02 0 498.98 510.94 0 1.06 -1.06 0z"/>
  <path fill="#2B2A29" d="M56.31 60.76l1.06 69.49 -4.25 0.06 -1.06 -69.49 4.25 -0.06zm4.45 -4.45l69.49 1.06 0.06 -4.25 -69.49 -1.06 -0.06 4.25z"/>
  <path fill="#2B2A29" d="M56.31 963.24l1.06 -69.49 -4.25 -0.06 -1.06 69.49 4.25 0.06zm4.45 4.45l69.49 -1.06 0.06 4.25 -69.49 1.06 -0.06 -4.25z"/>
  <path fill="#2B2A29" d="M967.69 60.76l-1.06 69.49 4.25 0.06 1.06 -69.49 -4.25 -0.06zm-4.45 -4.45l-69.49 1.06 -0.06 -4.25 69.49 -1.06 0.06 4.25z"/>
  <path fill="#2B2A29" d="M967.69 963.24l-1.06 -69.49 4.25 -0.06 1.06 69.49 -4.25 0.06zm-4.45 4.45l-69.49 -1.06 -0.06 4.25 69.49 1.06 0.06 -4.25z"/>
  <path fill="#2B2A29" d="M201.41 14.04l-1.26 1.24 -54.46 -14.89 -25.54 -0.07 74.54 20.38 -83.24 82.59 4.67 6 86.6 -86.41 -1.31 -8.84zm-201.02 131.65l-0.07 -25.54 20.38 74.54 82.59 -83.24 6 4.67 -86.41 86.6 -8.84 -1.31 1.24 -1.26 -14.89 -54.46z"/>
  <path fill="#2B2A29" d="M201.41 1009.96l-1.26 -1.24 -54.46 14.89 -25.54 0.07 74.54 -20.38 -83.24 -82.59 4.67 -6 86.6 86.41 -1.31 8.84zm-201.02 -131.65l-0.07 25.54 20.38 -74.54 82.59 83.24 6 -4.67 -86.41 -86.6 -8.84 1.31 1.24 1.26 -14.89 54.46z"/>
  <path fill="#2B2A29" d="M822.59 14.04l1.26 1.24 54.46 -14.89 25.54 -0.07 -74.54 20.38 83.24 82.59 -4.67 6 -86.6 -86.41 1.31 -8.84zm201.02 131.65l0.07 -25.54 -20.38 74.54 -82.59 -83.24 -6 4.67 86.41 86.6 8.84 -1.31 -1.24 -1.26 14.89 -54.46z"/>
  <path fill="#2B2A29" d="M822.59 1009.96l1.26 -1.24 54.46 14.89 25.54 0.07 -74.54 -20.38 83.24 -82.59 -4.67 -6 -86.6 86.41 1.31 8.84zm201.02 -131.65l0.07 25.54 -20.38 -74.54 -82.59 83.24 -6 -4.67 86.41 -86.6 8.84 1.31 -1.24 1.26 14.89 54.46z"/>
  <path fill="#2B2A29" d="M143.6 144.31l0.62 114.52 -4.25 0.01 -0.62 -114.51 4.25 -0.02zm0.71 -0.71l114.52 0.62 0.01 -4.25 -114.51 -0.62 -0.02 4.25z"/>
  <path fill="#2B2A29" d="M143.6 879.69l0.62 -114.52 -4.25 -0.01 -0.62 114.51 4.25 0.02zm0.71 0.71l114.52 -0.62 0.01 4.25 -114.51 0.62 -0.02 -4.25z"/>
  <path fill="#2B2A29" d="M880.4 144.31l-0.62 114.52 4.25 0.01 0.62 -114.51 -4.25 -0.02zm-0.71 -0.71l-114.52 0.62 -0.01 -4.25 114.51 -0.62 0.02 4.25z"/>
  <path fill="#2B2A29" d="M880.4 879.69l-0.62 -114.52 4.25 -0.01 0.62 114.51 -4.25 0.02zm-0.71 0.71l-114.52 -0.62 -0.01 4.25 114.51 0.62 0.02 -4.25z"/>
  <path fill="#2B2A29" d="M206.96 208.88l0.82 149.54 -3.69 0.02 -0.82 -149.54 3.69 -0.02zm1.92 -1.92l149.54 0.82 0.02 -3.69 -149.54 -0.82 -0.02 3.69z"/>
  <path fill="#2B2A29" d="M206.96 815.12l0.82 -149.54 -3.69 -0.02 -0.82 149.54 3.69 0.02zm1.92 1.92l149.54 -0.82 0.02 3.69 -149.54 0.82 -0.02 -3.69z"/>
  <path fill="#2B2A29" d="M817.04 208.88l-0.82 149.54 3.69 0.02 0.82 -149.54 -3.69 -0.02zm-1.92 -1.92l-149.54 0.82 -0.02 -3.69 149.54 -0.82 0.02 3.69z"/>
  <path fill="#2B2A29" d="M817.04 815.12l-0.82 -149.54 3.69 -0.02 0.82 149.54 -3.69 0.02zm-1.92 1.92l-149.54 -0.82 -0.02 3.69 149.54 0.82 0.02 -3.69z"/>
  <path fill="#2B2A29" d="M279.2 281.95l3.82 3.82 -74.76 74.76 -3.82 -3.82 74.76 -74.76zm2.75 -2.75l3.82 3.82 74.76 -74.76 -3.82 -3.82 -74.76 74.76z"/>
  <path fill="#2B2A29" d="M279.2 742.05l3.82 -3.82 -74.76 -74.76 -3.82 3.82 74.76 74.76zm2.75 2.75l3.82 -3.82 74.76 74.76 -3.82 3.82 -74.76 -74.76z"/>
  <path fill="#2B2A29" d="M744.8 281.95l-3.82 3.82 74.76 74.76 3.82 -3.82 -74.76 -74.76zm-2.75 -2.75l-3.82 3.82 -74.76 -74.76 3.82 -3.82 74.76 74.76z"/>
  <path fill="#2B2A29" d="M744.8 742.05l-3.82 -3.82 74.76 -74.76 3.82 3.82 -74.76 74.76zm-2.75 2.75l-3.82 -3.82 -74.76 74.76 3.82 3.82 74.76 -74.76z"/>
  <path fill="#2B2A29" d="M294.01 294.96l-38.24 136 -3.56 -1 38.25 -136 3.55 1zm0.95 -0.95l136 -38.24 -1 -3.56 -136 38.25 1 3.55z"/>
  <path fill="#2B2A29" d="M294.01 729.04l-38.24 -136 -3.56 1 38.25 136 3.55 -1zm0.95 0.95l136 38.24 -1 3.56 -136 -38.25 1 -3.55z"/>
  <path fill="#2B2A29" d="M729.99 294.96l38.24 136 3.56 -1 -38.25 -136 -3.55 1zm-0.95 -0.95l-136 -38.24 1 -3.56 136 38.25 -1 3.55z"/>
  <path fill="#2B2A29" d="M729.99 729.04l38.24 -136 3.56 1 -38.25 136 -3.55 -1zm-0.95 0.95l-136 38.24 1 3.56 136 -38.25 -1 -3.55z"/>
  <path fill="#2B2A29" d="M748.19 512l1.46 -232.78 -3.83 -0.03 -1.45 232.81 1.45 232.81 3.83 -0.03 -1.46 -232.78zm-472.38 0l-1.46 232.78 3.83 0.03 1.45 -232.81 -1.45 -232.81 -3.83 0.03 1.46 232.78zm236.19 236.19l-232.78 1.46 -0.03 -3.83 232.81 -1.45 232.81 1.45 -0.03 3.83 -232.78 -1.46zm0 -472.38l-232.78 -1.46 -0.03 3.83 232.81 1.45 232.81 -1.45 -0.03 -3.83 -232.78 1.46z"/>
  <path fill="#2B2A29" d="M790.92 512l-138.66 138.31 -8.24 -8.24 130.4 -130.07 -130.4 -130.07 8.24 -8.24 138.66 138.31zm-557.84 0l138.66 -138.31 8.24 8.24 -130.4 130.07 130.4 130.07 -8.24 8.24 -138.66 -138.31zm278.92 -278.92l-138.31 138.66 8.24 8.24 130.07 -130.4 130.07 130.4 8.24 -8.24 -138.31 -138.66zm0 557.84l-138.31 -138.66 8.24 -8.24 130.07 130.4 130.07 -130.4 8.24 8.24 -138.31 138.66z"/>
  <polygon fill="#2B2A29" points="338.46,340.26 343.28,346.13 210.33,361.21 208.71,354.97 "/>
  <polygon fill="#2B2A29" points="338.46,683.74 343.28,677.87 210.33,662.79 208.71,669.03 "/>
  <polygon fill="#2B2A29" points="685.54,340.26 680.72,346.13 813.67,361.21 815.29,354.97 "/>
  <polygon fill="#2B2A29" points="685.54,683.74 680.72,677.87 813.67,662.79 815.29,669.03 "/>
  <path fill="#2B2A29" d="M252.8 431.32l3.43 3.44 88.1 -88.1 -3.43 -3.44 -88.1 88.1zm178.52 -178.52l3.44 3.43 -88.1 88.1 -3.44 -3.43 88.1 -88.1z"/>
  <path fill="#2B2A29" d="M252.8 592.68l3.43 -3.44 88.1 88.1 -3.43 3.44 -88.1 -88.1zm178.52 178.52l3.44 -3.43 -88.1 -88.1 -3.44 3.43 88.1 88.1z"/>
  <path fill="#2B2A29" d="M771.2 431.32l-3.43 3.44 -88.1 -88.1 3.43 -3.44 88.1 88.1zm-178.52 -178.52l-3.44 3.43 88.1 88.1 3.44 -3.43 -88.1 -88.1z"/>
  <path fill="#2B2A29" d="M771.2 592.68l-3.43 -3.44 -88.1 88.1 3.43 3.44 88.1 -88.1zm-178.52 178.52l-3.44 -3.43 88.1 -88.1 3.44 3.43 -88.1 88.1z"/>
  <path fill="#2B2A29" d="M322.48 324.4l0.45 31.98 15.72 -15.72 1.3 1.31 -18.8 18.8 -0.52 -36.35 1.85 -0.02zm1.92 -1.92l31.98 0.45 -15.72 15.72 1.31 1.3 18.8 -18.8 -36.35 -0.52 -0.02 1.85z"/>
  <path fill="#2B2A29" d="M322.48 699.6l0.45 -31.98 15.72 15.72 1.3 -1.31 -18.8 -18.8 -0.52 36.35 1.85 0.02zm1.92 1.92l31.98 -0.45 -15.72 -15.72 1.31 -1.3 18.8 18.8 -36.35 0.52 -0.02 -1.85z"/>
  <path fill="#2B2A29" d="M701.52 324.4l-0.45 31.98 -15.72 -15.72 -1.3 1.31 18.8 18.8 0.52 -36.35 -1.85 -0.02zm-1.92 -1.92l-31.98 0.45 15.72 15.72 -1.31 1.3 -18.8 -18.8 36.35 -0.52 0.02 1.85z"/>
  <path fill="#2B2A29" d="M701.52 699.6l-0.45 -31.98 -15.72 15.72 -1.3 -1.31 18.8 -18.8 0.52 36.35 -1.85 0.02zm-1.92 1.92l-31.98 -0.45 15.72 -15.72 -1.31 -1.3 -18.8 18.8 36.35 0.52 0.02 -1.85z"/>
  <path fill="#2B2A29" d="M325.33 359.32l46.67 12.68 0.15 0.15 -0.86 3.19 -46.86 -12.73 0.9 -3.29zm33.99 -33.99l12.68 46.67 0.15 0.15 3.19 -0.86 -12.73 -46.86 -3.29 0.9z"/>
  <path fill="#2B2A29" d="M325.33 664.68l46.67 -12.68 0.15 -0.15 -0.86 -3.19 -46.86 12.73 0.9 3.29zm33.99 33.99l12.68 -46.67 0.15 -0.15 3.19 0.86 -12.73 46.86 -3.29 -0.9z"/>
  <path fill="#2B2A29" d="M698.67 359.32l-46.67 12.68 -0.15 0.15 0.86 3.19 46.86 -12.73 -0.9 -3.29zm-33.99 -33.99l-12.68 46.67 -0.15 0.15 -3.19 -0.86 12.73 -46.86 3.29 0.9z"/>
  <path fill="#2B2A29" d="M698.67 664.68l-46.67 -12.68 -0.15 -0.15 0.86 -3.19 46.86 12.73 -0.9 3.29zm-33.99 33.99l-12.68 -46.67 -0.15 -0.15 -3.19 0.86 12.73 46.86 3.29 -0.9z"/>
  <path fill="#2B2A29" d="M343.08 350.46l-5.94 62.8 -1.83 -0.17 5.89 -62.38 1.88 -0.25zm7.38 -7.38l62.8 -5.94 -0.17 -1.83 -62.38 5.89 -0.25 1.88zm-1.1 3.55l55.48 0.18 0 -1.85 -55.48 -0.17 0 1.84zm-2.73 2.73l0.18 55.48 -1.85 0 -0.17 -55.48 1.84 0z"/>
  <path fill="#2B2A29" d="M343.08 673.54l-5.94 -62.8 -1.83 0.17 5.89 62.38 1.88 0.25zm7.38 7.38l62.8 5.94 -0.17 1.83 -62.38 -5.89 -0.25 -1.88zm-1.1 -3.55l55.48 -0.18 0 1.85 -55.48 0.17 0 -1.84zm-2.73 -2.73l0.18 -55.48 -1.85 0 -0.17 55.48 1.84 0z"/>
  <path fill="#2B2A29" d="M680.92 350.46l5.94 62.8 1.83 -0.17 -5.89 -62.38 -1.88 -0.25zm-7.38 -7.38l-62.8 -5.94 0.17 -1.83 62.38 5.89 0.25 1.88zm1.1 3.55l-55.48 0.18 0 -1.85 55.48 -0.17 0 1.84zm2.73 2.73l-0.18 55.48 1.85 0 0.17 -55.48 -1.84 0z"/>
  <path fill="#2B2A29" d="M680.92 673.54l5.94 -62.8 1.83 0.17 -5.89 62.38 -1.88 0.25zm-7.38 7.38l-62.8 5.94 0.17 1.83 62.38 -5.89 0.25 -1.88zm1.1 -3.55l-55.48 -0.18 0 1.85 55.48 0.17 0 -1.84zm2.73 -2.73l-0.18 -55.48 1.85 0 0.17 55.48 -1.84 0z"/>
  <path fill="#2B2A29" d="M250.67 425.3l45.95 9.34 -0.56 2.78 -45.96 -9.34 0.57 -2.78zm174.63 -174.63l9.34 45.95 2.78 -0.56 -9.34 -45.96 -2.78 0.57z"/>
  <path fill="#2B2A29" d="M250.67 598.7l45.95 -9.34 -0.56 -2.78 -45.96 9.34 0.57 2.78zm174.63 174.63l9.34 -45.95 2.78 0.56 -9.34 45.96 -2.78 -0.57z"/>
  <path fill="#2B2A29" d="M773.33 425.3l-45.95 9.34 0.56 2.78 45.96 -9.34 -0.57 -2.78zm-174.63 -174.63l-9.34 45.95 -2.78 -0.56 9.34 -45.96 2.78 0.57z"/>
  <path fill="#2B2A29" d="M773.33 598.7l-45.95 -9.34 0.56 -2.78 45.96 9.34 -0.57 2.78zm-174.63 174.63l-9.34 -45.95 -2.78 0.56 9.34 45.96 2.78 -0.57z"/>
  <polygon fill="#2B2A29" points="295.25,510.85 407.72,510.76 407.73,512 407.72,513.24 295.25,513.15 295.25,512 "/>
  <polygon fill="#2B2A29" points="728.75,510.85 616.28,510.76 616.27,512 616.28,513.24 728.75,513.15 728.75,512 "/>
  <path fill="#2B2A29" d="M387.91 388.76l-19.99 69 -2.72 -0.79 19.98 -69 2.73 0.79zm0.85 -0.85l69 -19.99 -0.79 -2.72 -69 19.98 0.79 2.73z"/>
  <path fill="#2B2A29" d="M387.91 635.24l-19.99 -69 -2.72 0.79 19.98 69 2.73 -0.79zm0.85 0.85l69 19.99 -0.79 2.72 -69 -19.98 0.79 -2.73z"/>
  <path fill="#2B2A29" d="M636.09 388.76l19.99 69 2.72 -0.79 -19.98 -69 -2.73 0.79zm-0.85 -0.85l-69 -19.99 0.79 -2.72 69 19.98 -0.79 2.73z"/>
  <path fill="#2B2A29" d="M636.09 635.24l19.99 -69 2.72 0.79 -19.98 69 -2.73 -0.79zm-0.85 0.85l-69 19.99 0.79 2.72 69 -19.98 -0.79 -2.73z"/>
  <polygon fill="#2B2A29" points="364.92,453.86 408.97,410.25 410.96,412.26 366.91,455.86 "/>
  <polygon fill="#2B2A29" points="364.92,570.14 408.97,613.75 410.96,611.74 366.91,568.14 "/>
  <polygon fill="#2B2A29" points="659.08,453.86 615.03,410.25 613.04,412.26 657.09,455.86 "/>
  <polygon fill="#2B2A29" points="659.08,570.14 615.03,613.75 613.04,611.74 657.09,568.14 "/>
  <path fill="#2B2A29" d="M365.66 451.56l82.59 -3.31 0.43 0.43 0.07 1.68 -83 3.33 -0.09 -2.13zm85.9 -85.9l-3.31 82.59 0.43 0.43 1.68 0.07 3.33 -83 -2.13 -0.09z"/>
  <path fill="#2B2A29" d="M365.66 572.44l82.59 3.31 0.43 -0.43 0.07 -1.68 -83 -3.33 -0.09 2.13zm85.9 85.9l-3.31 -82.59 0.43 -0.43 1.68 -0.07 3.33 83 -2.13 0.09z"/>
  <path fill="#2B2A29" d="M658.34 451.56l-82.59 -3.31 -0.43 0.43 -0.07 1.68 83 3.33 0.09 -2.13zm-85.9 -85.9l3.31 82.59 -0.43 0.43 -1.68 0.07 -3.33 -83 2.13 -0.09z"/>
  <path fill="#2B2A29" d="M658.34 572.44l-82.59 3.31 -0.43 -0.43 -0.07 -1.68 83 -3.33 0.09 2.13zm-85.9 85.9l3.31 -82.59 -0.43 -0.43 -1.68 -0.07 -3.33 83 2.13 0.09z"/>
  <path fill="#2B2A29" d="M374.48 484.99l13.8 -36.8 1.33 0.5 -13.8 36.8 -1.33 -0.5zm110.51 -110.51l-36.8 13.8 0.5 1.33 36.8 -13.8 -0.5 -1.33z"/>
  <path fill="#2B2A29" d="M374.48 539.01l13.8 36.8 1.33 -0.5 -13.8 -36.8 -1.33 0.5zm110.51 110.51l-36.8 -13.8 0.5 -1.33 36.8 13.8 -0.5 1.33z"/>
  <path fill="#2B2A29" d="M649.52 484.99l-13.8 -36.8 -1.33 0.5 13.8 36.8 1.33 -0.5zm-110.51 -110.51l36.8 13.8 -0.5 1.33 -36.8 -13.8 0.5 -1.33z"/>
  <path fill="#2B2A29" d="M649.52 539.01l-13.8 36.8 -1.33 -0.5 13.8 -36.8 1.33 0.5zm-110.51 110.51l36.8 -13.8 -0.5 -1.33 -36.8 13.8 0.5 1.33z"/>
  <path fill="#2B2A29" d="M405.62 512l-0.16 -103.43 2.84 -0.01 0.15 103.44 -2.83 0zm106.38 -106.38l-103.43 -0.16 -0.01 2.84 103.44 0.15 0 -2.83z"/>
  <path fill="#2B2A29" d="M405.62 512l-0.16 103.43 2.84 0.01 0.15 -103.44 -2.83 0zm106.38 106.38l-103.43 0.16 -0.01 -2.84 103.44 -0.15 0 2.83z"/>
  <path fill="#2B2A29" d="M618.38 512l0.16 103.43 -2.84 0.01 -0.15 -103.44 0.15 -103.44 2.84 0.01 -0.16 103.43zm-106.38 -106.38l103.43 -0.16 0.01 2.84 -103.44 0.15 0 -2.83zm0 212.76l103.43 0.16 0.01 -2.84 -103.44 -0.15 0 2.83z"/>
  <polygon fill="#2B2A29" points="397.8,433.93 415.69,417.01 416.67,418.04 398.77,434.95 "/>
  <polygon fill="#2B2A29" points="397.8,590.07 415.69,606.99 416.67,605.96 398.77,589.05 "/>
  <polygon fill="#2B2A29" points="626.2,433.93 608.31,417.01 607.33,418.04 625.23,434.95 "/>
  <polygon fill="#2B2A29" points="626.2,590.07 608.31,606.99 607.33,605.96 625.23,589.05 "/>
  <polygon fill="#2B2A29" points="413.38,414.67 398.66,434.24 397.53,433.38 412.25,413.82 "/>
  <polygon fill="#2B2A29" points="413.38,609.33 398.66,589.76 397.53,590.62 412.25,610.18 "/>
  <polygon fill="#2B2A29" points="610.62,414.67 625.34,434.24 626.47,433.38 611.75,413.82 "/>
  <polygon fill="#2B2A29" points="610.62,609.33 625.34,589.76 626.47,590.62 611.75,610.18 "/>
  <polygon fill="#2B2A29" points="431.08,432.43 413.52,451.22 412.49,450.25 430.04,431.46 "/>
  <polygon fill="#2B2A29" points="431.08,591.57 413.52,572.78 412.49,573.75 430.04,592.54 "/>
  <polygon fill="#2B2A29" points="592.92,432.43 610.48,451.22 611.51,450.25 593.96,431.46 "/>
  <polygon fill="#2B2A29" points="592.92,591.57 610.48,572.78 611.51,573.75 593.96,592.54 "/>
  <polygon fill="#2B2A29" points="411.9,413.02 411.94,476.88 410.53,476.89 410.48,413.03 "/>
  <polygon fill="#2B2A29" points="411.9,610.98 411.94,547.12 410.53,547.11 410.48,610.97 "/>
  <polygon fill="#2B2A29" points="612.1,413.02 612.06,476.88 613.47,476.89 613.52,413.03 "/>
  <polygon fill="#2B2A29" points="612.1,610.98 612.06,547.12 613.47,547.11 613.52,610.97 "/>
  <polygon fill="#2B2A29" points="416.89,417.53 416.82,450.61 415.4,450.6 415.47,417.52 "/>
  <polygon fill="#2B2A29" points="416.89,606.47 416.82,573.39 415.4,573.4 415.47,606.48 "/>
  <polygon fill="#2B2A29" points="607.11,417.53 607.18,450.61 608.6,450.6 608.53,417.52 "/>
  <polygon fill="#2B2A29" points="607.11,606.47 607.18,573.39 608.6,573.4 608.53,606.48 "/>
  <polygon fill="#2B2A29" points="444.34,445.73 412.96,476.84 411.46,475.33 442.84,444.22 "/>
  <polygon fill="#2B2A29" points="444.34,578.27 412.96,547.16 411.46,548.67 442.84,579.78 "/>
  <polygon fill="#2B2A29" points="579.66,445.73 611.04,476.84 612.54,475.33 581.16,444.22 "/>
  <polygon fill="#2B2A29" points="579.66,578.27 611.04,547.16 612.54,548.67 581.16,579.78 "/>
  <path fill="#2B2A29" d="M423.92 512l-0.63 -86.6 2.09 -0.02 0.04 0.04 0.62 86.58 -2.12 0zm88.08 -88.08l-86.6 -0.63 -0.02 2.09 0.04 0.04 86.58 0.62 0 -2.12z"/>
  <path fill="#2B2A29" d="M423.92 512l-0.63 86.6 2.09 0.02 0.04 -0.04 0.62 -86.58 -2.12 0zm88.08 88.08l-86.6 0.63 -0.02 -2.09 0.04 -0.04 86.58 -0.62 0 2.12z"/>
  <path fill="#2B2A29" d="M600.08 512l0.63 -86.6 -2.09 -0.02 -0.04 0.04 -0.62 86.58 2.12 0zm-88.08 -88.08l86.6 -0.63 0.02 2.09 -0.04 0.04 -86.58 0.62 0 -2.12z"/>
  <path fill="#2B2A29" d="M600.08 512l0.63 86.6 -2.09 0.02 -0.04 -0.04 -0.62 -86.58 2.12 0zm-88.08 88.08l86.6 0.63 0.02 -2.09 -0.04 -0.04 -86.58 -0.62 0 2.12z"/>
  <path fill="#2B2A29" d="M405.24 512l52.91 52.91 2.61 -2.61 -50.3 -50.3 -5.22 0zm106.76 106.76l-52.91 -52.91 2.61 -2.61 50.3 50.3 0 5.22zm-106.76 -106.76l52.91 -52.91 2.61 2.61 -50.3 50.3 -5.22 0zm106.76 -106.76l-52.91 52.91 2.61 2.61 50.3 -50.3 0 -5.22zm106.76 106.76l-52.91 52.91 -2.61 -2.61 50.3 -50.3 -50.3 -50.3 2.61 -2.61 52.91 52.91zm-106.76 -106.76l52.91 52.91 -2.61 2.61 -50.3 -50.3 0 -5.22zm0 213.52l52.91 -52.91 -2.61 -2.61 -50.3 50.3 0 5.22z"/>
  <path fill="#2B2A29" d="M423.4 512l43.74 -43.74 1.5 1.51 -42.23 42.23 -3.01 0zm88.6 -88.6l-43.74 43.74 1.51 1.5 42.23 -42.23 0 -3.01z"/>
  <path fill="#2B2A29" d="M423.4 512l43.74 43.74 1.5 -1.51 -42.23 -42.23 -3.01 0zm88.6 88.6l-43.74 -43.74 1.51 -1.5 42.23 42.23 0 3.01z"/>
  <path fill="#2B2A29" d="M600.6 512l-43.74 -43.74 -1.5 1.51 42.23 42.23 3.01 0zm-88.6 -88.6l43.74 43.74 -1.51 1.5 -42.23 -42.23 0 -3.01z"/>
  <path fill="#2B2A29" d="M600.6 512l-43.74 43.74 -1.5 -1.51 42.23 -42.23 3.01 0zm-88.6 88.6l43.74 -43.74 -1.51 -1.5 -42.23 42.23 0 3.01z"/>
  <path fill="#2B2A29" d="M450.22 512l30.42 -30.42 1.5 1.51 -28.91 28.91 -3.01 0zm61.78 -61.78l-30.42 30.42 1.51 1.5 28.91 -28.91 0 -3.01z"/>
  <path fill="#2B2A29" d="M450.22 512l30.42 30.42 1.5 -1.51 -28.91 -28.91 -3.01 0zm61.78 61.78l-30.42 -30.42 1.51 -1.5 28.91 28.91 0 3.01z"/>
  <path fill="#2B2A29" d="M573.78 512l-30.42 -30.42 -1.5 1.51 28.91 28.91 3.01 0zm-61.78 -61.78l30.42 30.42 -1.51 1.5 -28.91 -28.91 0 -3.01z"/>
  <path fill="#2B2A29" d="M573.78 512l-30.42 30.42 -1.5 -1.51 28.91 -28.91 3.01 0zm-61.78 61.78l30.42 -30.42 -1.51 -1.5 -28.91 28.91 0 3.01z"/>
  <polygon fill="#2B2A29" points="407.73,512 407.72,511.47 510.62,510.62 512,512 510.62,513.38 407.72,512.53 "/>
  <polygon fill="#2B2A29" points="616.27,512 616.28,511.47 513.38,510.62 512,512 513.38,513.38 616.28,512.53 "/>
  <polygon fill="#2B2A29" points="433.77,512 421.44,423.63 422.84,423.43 435.21,512 "/>
  <polygon fill="#2B2A29" points="433.77,512 421.44,600.37 422.84,600.57 435.21,512 "/>
  <polygon fill="#2B2A29" points="590.23,512 602.56,423.63 601.16,423.43 588.79,512 "/>
  <polygon fill="#2B2A29" points="590.23,512 602.56,600.37 601.16,600.57 588.79,512 "/>
  <path fill="#2B2A29" d="M428.58 512l9.26 -72.03 2.1 0.27 -9.22 71.76 -2.14 0zm83.42 -83.42l-72.03 9.26 0.27 2.1 71.76 -9.22 0 -2.14z"/>
  <path fill="#2B2A29" d="M428.58 512l9.26 72.03 2.1 -0.27 -9.22 -71.76 -2.14 0zm83.42 83.42l-72.03 -9.26 0.27 -2.1 71.76 9.22 0 2.14z"/>
  <path fill="#2B2A29" d="M595.42 512l-9.26 -72.03 -2.1 0.27 9.22 71.76 2.14 0zm-83.42 -83.42l72.03 9.26 -0.27 2.1 -71.76 -9.22 0 -2.14z"/>
  <path fill="#2B2A29" d="M595.42 512l-9.26 72.03 -2.1 -0.27 9.22 -71.76 2.14 0zm-83.42 83.42l72.03 -9.26 -0.27 -2.1 -71.76 9.22 0 2.14z"/>
  <polygon fill="#2B2A29" points="447.54,512 436.93,437.73 437.63,437.63 438.47,438.47 448.97,512 "/>
  <polygon fill="#2B2A29" points="447.54,512 436.93,586.27 437.63,586.37 438.47,585.53 448.97,512 "/>
  <polygon fill="#2B2A29" points="576.46,512 587.07,437.73 586.37,437.63 585.53,438.47 575.03,512 "/>
  <polygon fill="#2B2A29" points="576.46,512 587.07,586.27 586.37,586.37 585.53,585.53 575.03,512 "/>
  <path fill="#2B2A29" d="M451.14 512l-0.37 -59.48 1.41 -0.02 0.38 59.5 -1.42 0zm60.86 -60.86l-59.48 -0.37 -0.02 1.41 59.5 0.38 0 -1.42z"/>
  <path fill="#2B2A29" d="M451.14 512l-0.37 59.48 1.41 0.02 0.38 -59.5 -1.42 0zm60.86 60.86l-59.48 0.37 -0.02 -1.41 59.5 -0.38 0 1.42z"/>
  <path fill="#2B2A29" d="M572.86 512l0.37 -59.48 -1.41 -0.02 -0.38 59.5 1.42 0zm-60.86 -60.86l59.48 -0.37 0.02 1.41 -59.5 0.38 0 -1.42z"/>
  <path fill="#2B2A29" d="M572.86 512l0.37 59.48 -1.41 0.02 -0.38 -59.5 1.42 0zm-60.86 60.86l59.48 0.37 0.02 -1.41 -59.5 -0.38 0 1.42z"/>
  <polygon fill="#2B2A29" points="416.78,512 414.93,473.29 416.35,473.23 418.2,512 "/>
  <polygon fill="#2B2A29" points="416.78,512 414.93,550.71 416.35,550.77 418.2,512 "/>
  <polygon fill="#2B2A29" points="607.22,512 609.07,473.29 607.65,473.23 605.8,512 "/>
  <polygon fill="#2B2A29" points="607.22,512 609.07,550.71 607.65,550.77 605.8,512 "/>
  <path fill="#2B2A29" d="M495.01 512l-0.11 -15.93 1.13 -0.01 0.11 15.94 -1.13 0zm16.99 -16.99l-15.93 -0.11 -0.01 1.13 15.94 0.11 0 -1.13z"/>
  <path fill="#2B2A29" d="M495.01 512l-0.11 15.93 1.13 0.01 0.11 -15.94 -1.13 0zm16.99 16.99l-15.93 0.11 -0.01 -1.13 15.94 -0.11 0 1.13z"/>
  <path fill="#2B2A29" d="M528.99 512l0.11 -15.93 -1.13 -0.01 -0.11 15.94 1.13 0zm-16.99 -16.99l15.93 -0.11 0.01 1.13 -15.94 0.11 0 -1.13z"/>
  <path fill="#2B2A29" d="M528.99 512l0.11 15.93 -1.13 0.01 -0.11 -15.94 1.13 0zm-16.99 16.99l15.93 0.11 0.01 -1.13 -15.94 -0.11 0 1.13z"/>
  <path fill="#2B2A29" d="M484.45 512l0.42 -25.59 1.56 0.02 0.55 0.55 -0.4 25.02 -2.13 0zm27.55 -27.55l-25.59 0.42 0.02 1.56 0.55 0.55 25.02 -0.4 0 -2.13z"/>
  <path fill="#2B2A29" d="M484.45 512l0.42 25.59 1.56 -0.02 0.55 -0.55 -0.4 -25.02 -2.13 0zm27.55 27.55l-25.59 -0.42 0.02 -1.56 0.55 -0.55 25.02 0.4 0 2.13z"/>
  <path fill="#2B2A29" d="M539.55 512l-0.42 -25.59 -1.56 0.02 -0.55 0.55 0.4 25.02 2.13 0zm-27.55 -27.55l25.59 0.42 -0.02 1.56 -0.55 0.55 -25.02 -0.4 0 -2.13z"/>
  <path fill="#2B2A29" d="M539.55 512l-0.42 25.59 -1.56 -0.02 -0.55 -0.55 0.4 -25.02 2.13 0zm-27.55 27.55l25.59 -0.42 -0.02 -1.56 -0.55 -0.55 -25.02 0.4 0 2.13z"/>
  <path fill="#2B2A29" d="M479.56 512l0.74 -30.37 1.36 0.03 0.2 0.2 -0.74 30.14 -1.56 0zm32.44 -32.44l-30.37 0.74 0.03 1.36 0.2 0.2 30.14 -0.74 0 -1.56z"/>
  <path fill="#2B2A29" d="M479.56 512l0.74 30.37 1.36 -0.03 0.2 -0.2 -0.74 -30.14 -1.56 0zm32.44 32.44l-30.37 -0.74 0.03 -1.36 0.2 -0.2 30.14 0.74 0 1.56z"/>
  <path fill="#2B2A29" d="M544.44 512l-0.74 -30.37 -1.36 0.03 -0.2 0.2 0.74 30.14 1.56 0zm-32.44 -32.44l30.37 0.74 -0.03 1.36 -0.2 0.2 -30.14 -0.74 0 -1.56z"/>
  <path fill="#2B2A29" d="M544.44 512l-0.74 30.37 -1.36 -0.03 -0.2 -0.2 0.74 -30.14 1.56 0zm-32.44 32.44l30.37 -0.74 -0.03 -1.36 -0.2 -0.2 -30.14 0.74 0 1.56z"/>
  <path fill="#2B2A29" d="M475.02 512l0.6 -34.67 1.7 0.03 -0.6 34.64 -1.7 0zm36.98 -36.98l-34.67 0.6 0.03 1.7 34.64 -0.6 0 -1.7z"/>
  <path fill="#2B2A29" d="M475.02 512l0.6 34.67 1.7 -0.03 -0.6 -34.64 -1.7 0zm36.98 36.98l-34.67 -0.6 0.03 -1.7 34.64 0.6 0 1.7z"/>
  <path fill="#2B2A29" d="M548.98 512l-0.6 -34.67 -1.7 0.03 0.6 34.64 1.7 0zm-36.98 -36.98l34.67 0.6 -0.03 1.7 -34.64 -0.6 0 -1.7z"/>
  <path fill="#2B2A29" d="M548.98 512l-0.6 34.67 -1.7 -0.03 0.6 -34.64 1.7 0zm-36.98 36.98l34.67 -0.6 -0.03 -1.7 -34.64 0.6 0 1.7z"/>
  <path fill="#2B2A29" d="M496.97 512l-0.17 -13.89 1.13 -0.01 0.17 13.9 -1.13 0zm15.03 -15.03l-13.89 -0.17 -0.01 1.13 13.9 0.17 0 -1.13z"/>
  <path fill="#2B2A29" d="M496.97 512l-0.17 13.89 1.13 0.01 0.17 -13.9 -1.13 0zm15.03 15.03l-13.89 0.17 -0.01 -1.13 13.9 -0.17 0 1.13z"/>
  <path fill="#2B2A29" d="M527.03 512l0.17 -13.89 -1.13 -0.01 -0.17 13.9 1.13 0zm-15.03 -15.03l13.89 -0.17 0.01 1.13 -13.9 0.17 0 -1.13z"/>
  <path fill="#2B2A29" d="M527.03 512l0.17 13.89 -1.13 0.01 -0.17 -13.9 1.13 0zm-15.03 15.03l13.89 0.17 0.01 -1.13 -13.9 -0.17 0 1.13z"/>
  <path fill="#2B2A29" d="M512 289.07l80.46 -37.42 373.27 -251.52 21.36 -0.06 -390.33 257.3 -84.76 39 -84.76 -39 -390.33 -257.3 21.36 0.06 373.27 251.52 80.46 37.42zm0 445.86l80.46 37.42 373.27 251.52 21.36 0.06 -390.33 -257.3 -84.76 -39 -84.76 39 -390.33 257.3 21.36 -0.06 373.27 -251.52 80.46 -37.42zm-222.93 -222.93l-37.42 80.46 -251.52 373.27 -0.06 21.36 257.3 -390.33 39 -84.76 -39 -84.76 -257.3 -390.33 0.06 21.36 251.52 373.27 37.42 80.46zm445.86 0l37.42 80.46 251.52 373.27 0.06 21.36 -257.3 -390.33 -39 -84.76 39 -84.76 257.3 -390.33 -0.06 21.36 -251.52 373.27 -37.42 80.46z"/>
  <path fill="#2B2A29" d="M96.37 91.35l36.16 -36.16 -4.02 -4.02 -36.16 36.16 4.02 4.02zm-5.02 5.02l-36.16 36.16 -4.02 -4.02 36.16 -36.16 4.02 4.02z"/>
  <path fill="#2B2A29" d="M96.37 932.65l36.16 36.16 -4.02 4.02 -36.16 -36.16 4.02 -4.02zm-5.02 -5.02l-36.16 -36.16 -4.02 4.02 36.16 36.16 4.02 -4.02z"/>
  <path fill="#2B2A29" d="M927.63 91.35l-36.16 -36.16 4.02 -4.02 36.16 36.16 -4.02 4.02zm5.02 5.02l36.16 36.16 4.02 -4.02 -36.16 -36.16 -4.02 4.02z"/>
  <path fill="#2B2A29" d="M927.63 932.65l-36.16 36.16 4.02 4.02 36.16 -36.16 -4.02 -4.02zm5.02 -5.02l36.16 -36.16 4.02 4.02 -36.16 36.16 -4.02 -4.02z"/>
  <path fill="#2B2A29" d="M119.51 49.85l26.13 93.58 4.78 -1.35 -26.12 -93.58 -4.79 1.35zm-69.66 69.66l93.58 26.13 -1.35 4.78 -93.58 -26.12 1.35 -4.79z"/>
  <path fill="#2B2A29" d="M119.51 974.15l26.13 -93.58 4.78 1.35 -26.12 93.58 -4.79 -1.35zm-69.66 -69.66l93.58 -26.13 -1.35 -4.78 -93.58 26.12 1.35 4.79z"/>
  <path fill="#2B2A29" d="M904.49 49.85l-26.13 93.58 -4.78 -1.35 26.12 -93.58 4.79 1.35zm69.66 69.66l-93.58 26.13 1.35 4.78 93.58 -26.12 -1.35 -4.79z"/>
  <path fill="#2B2A29" d="M904.49 974.15l-26.13 -93.58 -4.78 1.35 26.12 93.58 4.79 -1.35zm69.66 -69.66l-93.58 -26.13 1.35 -4.78 93.58 26.12 -1.35 4.79z"/>
  <path fill="#2B2A29" d="M132.48 59.29l59.18 131.62 5.17 -2.34 -59.19 -131.62 -5.16 2.34zm-73.19 73.19l131.62 59.18 -2.34 5.17 -131.62 -59.19 2.34 -5.16z"/>
  <path fill="#2B2A29" d="M132.48 964.71l59.18 -131.62 5.17 2.34 -59.19 131.62 -5.16 -2.34zm-73.19 -73.19l131.62 -59.18 -2.34 -5.17 -131.62 59.19 2.34 5.16z"/>
  <path fill="#2B2A29" d="M891.52 59.29l-59.18 131.62 -5.17 -2.34 59.19 -131.62 5.16 2.34zm73.19 73.19l-131.62 59.18 2.34 5.17 131.62 -59.19 -2.34 -5.16z"/>
  <path fill="#2B2A29" d="M891.52 964.71l-59.18 -131.62 -5.17 2.34 59.19 131.62 5.16 -2.34zm73.19 -73.19l-131.62 -59.18 2.34 -5.17 131.62 59.19 -2.34 5.16z"/>
  <path fill="#2B2A29" d="M206.33 202.06l56.55 -57.17 -4.02 -3.99 -56.55 57.17 4.02 3.99zm-4.27 4.27l-57.17 56.55 -3.99 -4.02 57.17 -56.55 3.99 4.02z"/>
  <path fill="#2B2A29" d="M206.33 821.94l56.55 57.17 -4.02 3.99 -56.55 -57.17 4.02 -3.99zm-4.27 -4.27l-57.17 -56.55 -3.99 4.02 57.17 56.55 3.99 -4.02z"/>
  <path fill="#2B2A29" d="M817.67 202.06l-56.55 -57.17 4.02 -3.99 56.55 57.17 -4.02 3.99zm4.27 4.27l57.17 56.55 3.99 -4.02 -57.17 -56.55 -3.99 4.02z"/>
  <path fill="#2B2A29" d="M817.67 821.94l-56.55 57.17 4.02 3.99 56.55 -57.17 -4.02 -3.99zm4.27 -4.27l57.17 -56.55 3.99 4.02 -57.17 56.55 -3.99 -4.02z"/>
  <path fill="#2B2A29" d="M210.15 205.68l5.43 4.22 47.2 -66.61 -5.43 -4.22 -47.2 66.61zm-4.47 4.47l4.22 5.43 -66.61 47.2 -4.22 -5.43 66.61 -47.2z"/>
  <path fill="#2B2A29" d="M210.15 818.32l5.43 -4.22 47.2 66.61 -5.43 4.22 -47.2 -66.61zm-4.47 -4.47l4.22 -5.43 -66.61 -47.2 -4.22 5.43 66.61 47.2z"/>
  <path fill="#2B2A29" d="M813.85 205.68l-5.43 4.22 -47.2 -66.61 5.43 -4.22 47.2 66.61zm4.47 4.47l-4.22 5.43 66.61 47.2 4.22 -5.43 -66.61 -47.2z"/>
  <path fill="#2B2A29" d="M813.85 818.32l-5.43 -4.22 -47.2 66.61 5.43 4.22 47.2 -66.61zm4.47 -4.47l-4.22 -5.43 66.61 -47.2 4.22 5.43 -66.61 47.2z"/>
  <path fill="#2B2A29" d="M283.03 277.63l-5.63 -2.01 -15.92 -130.49 5.62 2.01 15.93 130.49zm-5.4 5.4l-2.01 -5.63 -130.49 -15.92 2.01 5.62 130.49 15.93z"/>
  <path fill="#2B2A29" d="M283.03 746.37l-5.63 2.01 -15.92 130.49 5.62 -2.01 15.93 -130.49zm-5.4 -5.4l-2.01 5.63 -130.49 15.92 2.01 -5.62 130.49 -15.93z"/>
  <path fill="#2B2A29" d="M740.97 277.63l5.63 -2.01 15.92 -130.49 -5.62 2.01 -15.93 130.49zm5.4 5.4l2.01 -5.63 130.49 -15.92 -2.01 5.62 -130.49 15.93z"/>
  <path fill="#2B2A29" d="M740.97 746.37l5.63 2.01 15.92 130.49 -5.62 -2.01 -15.93 -130.49zm5.4 -5.4l2.01 5.63 130.49 15.92 -2.01 -5.62 -130.49 -15.93z"/>
  <path fill="#2B2A29" d="M257.06 255.2l5.23 5.22 97.8 -50.56 -5.22 -5.23 -97.81 50.57zm-1.86 1.86l5.22 5.23 -50.56 97.8 -5.23 -5.22 50.57 -97.81z"/>
  <path fill="#2B2A29" d="M257.06 768.8l5.23 -5.22 97.8 50.56 -5.22 5.23 -97.81 -50.57zm-1.86 -1.86l5.22 -5.23 -50.56 -97.8 -5.23 5.22 50.57 97.81z"/>
  <path fill="#2B2A29" d="M766.94 255.2l-5.23 5.22 -97.8 -50.56 5.22 -5.23 97.81 50.57zm1.86 1.86l-5.22 5.23 50.56 97.8 5.23 -5.22 -50.57 -97.81z"/>
  <path fill="#2B2A29" d="M766.94 768.8l-5.23 -5.22 -97.8 50.56 5.22 5.23 97.81 -50.57zm1.86 -1.86l-5.22 -5.23 50.56 -97.8 5.23 5.22 -50.57 97.81z"/>
  <path fill="#2B2A29" d="M554.25 1022.65l14.49 0.04 224.37 -225.5 -7.29 -7.29 -231.57 232.75zm468.4 -468.4l0.04 14.49 -225.5 224.37 -7.29 -7.29 232.75 -231.57zm-552.9 468.4l-14.49 0.04 -224.37 -225.5 7.29 -7.29 231.57 232.75zm-468.4 -468.4l-0.04 14.49 225.5 224.37 7.29 -7.29 -232.75 -231.57zm468.4 -552.9l-14.49 -0.04 -224.37 225.5 7.29 7.29 231.57 -232.75zm-468.4 468.4l-0.04 -14.49 225.5 -224.37 7.29 7.29 -232.75 231.57zm552.9 -468.4l14.49 -0.04 224.37 225.5 -7.29 7.29 -231.57 -232.75zm468.4 468.4l0.04 -14.49 -225.5 -224.37 -7.29 7.29 232.75 231.57z"/>
  <path fill="#2B2A29" d="M512 231.19l-275.86 -1.92 -31 -228.7 -9.21 -0.03 32.07 225.63 13.14 12.88 270.86 1.88 270.86 -1.88 13.14 -12.88 32.07 -225.63 -9.21 0.03 -31 228.7 -275.86 1.92zm0 561.62l-275.86 1.92 -31 228.7 -9.21 0.03 32.07 -225.63 13.14 -12.88 270.86 -1.88 270.86 1.88 13.14 12.88 32.07 225.63 -9.21 -0.03 -31 -228.7 -275.86 -1.92zm511.43 26.05l0.03 9.21 -225.63 -32.07 -12.88 -13.14 -1.88 -270.86 1.88 -270.86 12.88 -13.14 225.63 -32.07 -0.03 9.21 -228.7 31 -1.92 275.86 1.92 275.86 228.7 31zm-1022.86 0l-0.03 9.21 225.63 -32.07 12.88 -13.14 1.88 -270.86 -1.88 -270.86 -12.88 -13.14 -225.63 -32.07 0.03 9.21 228.7 31 1.92 275.86 -1.92 275.86 -228.7 31z"/>
  <path fill="#2B2A29" d="M255.23 255.04l3.23 0.01 -0.23 1.16 109.64 22.42 0.74 -3.61 -97.36 -19.91 157.61 0.72 0.01 -3.68 -173.63 -0.8 -0.01 3.69zm0.98 3.19l22.42 109.64 -3.61 0.74 -19.91 -97.36 0.72 157.61 -3.68 0.01 -0.8 -173.63 3.69 -0.01 0.01 3.23 1.16 -0.23z"/>
  <path fill="#2B2A29" d="M255.23 768.96l3.23 -0.01 -0.23 -1.16 109.64 -22.42 0.74 3.61 -97.36 19.91 157.61 -0.72 0.01 3.68 -173.63 0.8 -0.01 -3.69zm0.98 -3.19l22.42 -109.64 -3.61 -0.74 -19.91 97.36 0.72 -157.61 -3.68 -0.01 -0.8 173.63 3.69 0.01 0.01 -3.23 1.16 0.23z"/>
  <path fill="#2B2A29" d="M768.77 255.04l-3.23 0.01 0.23 1.16 -109.64 22.42 -0.74 -3.61 97.36 -19.91 -157.61 0.72 -0.01 -3.68 173.63 -0.8 0.01 3.69zm-0.98 3.19l-22.42 109.64 3.61 0.74 19.91 -97.36 -0.72 157.61 3.68 0.01 0.8 -173.63 -3.69 -0.01 -0.01 3.23 -1.16 -0.23z"/>
  <path fill="#2B2A29" d="M768.77 768.96l-3.23 -0.01 0.23 -1.16 -109.64 -22.42 -0.74 3.61 97.36 19.91 -157.61 -0.72 -0.01 3.68 173.63 0.8 0.01 -3.69zm-0.98 -3.19l-22.42 -109.64 3.61 -0.74 19.91 97.36 -0.72 -157.61 3.68 -0.01 0.8 173.63 -3.69 0.01 -0.01 -3.23 -1.16 0.23z"/>
  <path fill="#2B2A29" d="M512 729.92l214.58 0.56 -4.5 -6.26 -210.08 -0.55 -210.08 0.55 -4.5 6.26 214.58 -0.56zm0 -435.84l214.58 -0.56 -4.5 6.26 -210.08 0.55 -210.08 -0.55 -4.5 -6.26 214.58 0.56zm-217.92 217.92l-0.56 -214.58 6.26 4.5 0.55 210.08 -0.55 210.08 -6.26 4.5 0.56 -214.58zm435.84 0l0.56 -214.58 -6.26 4.5 -0.55 210.08 0.55 210.08 6.26 4.5 -0.56 -214.58z"/>
  <path fill="#2B2A29" d="M512 641.67l-63.32 20.92 -39.05 18.61 -96.43 46 -11.66 -1.1 143.59 -67.45 66.87 -21.58 0 4.6zm-129.67 -129.67l-20.92 63.32 -18.61 39.05 -46 96.43 1.1 11.66 67.45 -143.59 21.58 -66.87 -4.6 0zm129.67 129.67l63.32 20.92 39.05 18.61 96.43 46 11.66 -1.1 -143.59 -67.45 -66.87 -21.58 0 4.6zm0 -259.34l63.32 -20.92 39.05 -18.61 96.43 -46 11.66 1.1 -143.59 67.45 -66.87 21.58 0 -4.6zm129.67 129.67l20.92 -63.32 18.61 -39.05 46 -96.43 -1.1 -11.66 -67.45 143.59 -21.58 66.87 21.58 66.87 67.45 143.59 1.1 -11.66 -46 -96.43 -18.61 -39.05 -20.92 -63.32zm-129.67 -129.67l-63.32 -20.92 -39.05 -18.61 -96.43 -46 -11.66 1.1 143.59 67.45 66.87 21.58 0 -4.6zm-129.67 129.67l-20.92 -63.32 -18.61 -39.05 -46 -96.43 1.1 -11.66 67.45 143.59 21.58 66.87 -4.6 0z"/>
  <polygon fill="#2B2A29" points="340.26,338.46 346.13,343.28 361.21,210.33 354.97,208.71 "/>
  <polygon fill="#2B2A29" points="340.26,685.54 346.13,680.72 361.21,813.67 354.97,815.29 "/>
  <polygon fill="#2B2A29" points="683.74,338.46 677.87,343.28 662.79,210.33 669.03,208.71 "/>
  <polygon fill="#2B2A29" points="683.74,685.54 677.87,680.72 662.79,813.67 669.03,815.29 "/>
  <path fill="#2B2A29" d="M351.58 348.69l3.87 -29.23 -1.82 -0.24 -3.88 29.22 1.83 0.25zm-2.89 2.89l-29.23 3.87 -0.24 -1.82 29.22 -3.88 0.25 1.83z"/>
  <path fill="#2B2A29" d="M351.58 675.31l3.87 29.23 -1.82 0.24 -3.88 -29.22 1.83 -0.25zm-2.89 -2.89l-29.23 -3.87 -0.24 1.82 29.22 3.88 0.25 -1.83z"/>
  <path fill="#2B2A29" d="M672.42 348.69l-3.87 -29.23 1.82 -0.24 3.88 29.22 -1.83 0.25zm2.89 2.89l29.23 3.87 0.24 -1.82 -29.22 -3.88 -0.25 1.83z"/>
  <path fill="#2B2A29" d="M672.42 675.31l-3.87 29.23 1.82 0.24 3.88 -29.22 -1.83 -0.25zm2.89 -2.89l29.23 -3.87 0.24 1.82 -29.22 3.88 -0.25 -1.83z"/>
  <path fill="#2B2A29" d="M418.43 335.3l13.17 -80.16 -3.35 -0.55 -13.17 80.16 3.35 0.55zm-7.86 11.67l4.78 3.73 -6.47 55.57 -4.69 -4.35 6.38 -54.95zm-63.6 63.6l3.73 4.78 55.57 -6.47 -4.35 -4.69 -54.95 6.38zm-11.67 7.86l-80.16 13.17 -0.55 -3.35 80.16 -13.17 0.55 3.35z"/>
  <path fill="#2B2A29" d="M418.43 688.7l13.17 80.16 -3.35 0.55 -13.17 -80.16 3.35 -0.55zm-7.86 -11.67l4.78 -3.73 -6.47 -55.57 -4.69 4.35 6.38 54.95zm-63.6 -63.6l3.73 -4.78 55.57 6.47 -4.35 4.69 -54.95 -6.38zm-11.67 -7.86l-80.16 -13.17 -0.55 3.35 80.16 13.17 0.55 -3.35z"/>
  <path fill="#2B2A29" d="M605.57 335.3l-13.17 -80.16 3.35 -0.55 13.17 80.16 -3.35 0.55zm7.86 11.67l-4.78 3.73 6.47 55.57 4.69 -4.35 -6.38 -54.95zm63.6 63.6l-3.73 4.78 -55.57 -6.47 4.35 -4.69 54.95 6.38zm11.67 7.86l80.16 13.17 0.55 -3.35 -80.16 -13.17 -0.55 3.35z"/>
  <path fill="#2B2A29" d="M605.57 688.7l-13.17 80.16 3.35 0.55 13.17 -80.16 -3.35 -0.55zm7.86 -11.67l-4.78 -3.73 6.47 -55.57 4.69 4.35 -6.38 54.95zm63.6 -63.6l-3.73 -4.78 -55.57 6.47 4.35 4.69 54.95 -6.38zm11.67 -7.86l80.16 -13.17 0.55 3.35 -80.16 13.17 -0.55 -3.35z"/>
  <path fill="#2B2A29" d="M397.5 351.05l1.82 3.45 -28.45 15.43 -1.82 -3.46 28.45 -15.42zm-46.45 46.45l3.45 1.82 15.43 -28.45 -3.46 -1.82 -15.42 28.45z"/>
  <path fill="#2B2A29" d="M397.5 672.95l1.82 -3.45 -28.45 -15.43 -1.82 3.46 28.45 15.42zm-46.45 -46.45l3.45 -1.82 15.43 28.45 -3.46 1.82 -15.42 -28.45z"/>
  <path fill="#2B2A29" d="M626.5 351.05l-1.82 3.45 28.45 15.43 1.82 -3.46 -28.45 -15.42zm46.45 46.45l-3.45 1.82 -15.43 -28.45 3.46 -1.82 15.42 28.45z"/>
  <path fill="#2B2A29" d="M626.5 672.95l-1.82 -3.45 28.45 -15.43 1.82 3.46 -28.45 15.42zm46.45 -46.45l-3.45 -1.82 -15.43 28.45 3.46 1.82 15.42 -28.45z"/>
  <path fill="#2B2A29" d="M512 728.5l107.27 -107.36 -3 -3 -104.27 104.35 -104.27 -104.35 -3 3 107.27 107.36zm0 -433l107.27 107.36 -3 3 -104.27 -104.35 -104.27 104.35 -3 -3 107.27 -107.36zm-216.5 216.5l107.36 -107.27 3 3 -104.35 104.27 104.35 104.27 -3 3 -107.36 -107.27zm433 0l-107.36 -107.27 -3 3 104.35 104.27 -104.35 104.27 3 3 107.36 -107.27z"/>
  <path fill="#2B2A29" d="M392.97 367.01l57.3 0.05 0 -1.7 -57.3 -0.05 0 1.7zm119.03 8.34l-128.28 -1.31 -0.01 1.7 128.29 1.31 0 -1.7zm-136.65 136.65l-1.31 -128.28 1.7 -0.01 1.31 128.29 -1.7 0zm-8.34 -119.03l0.05 57.3 -1.7 0 -0.05 -57.3 1.7 0zm-10.19 11.34l0.26 26.32 -1.7 0.02 -0.26 -26.33 1.7 -0.01zm47.49 -47.49l26.32 0.26 0.02 -1.7 -26.33 -0.26 -0.01 1.7z"/>
  <path fill="#2B2A29" d="M392.97 656.99l57.3 -0.05 0 1.7 -57.3 0.05 0 -1.7zm119.03 -8.34l-128.28 1.31 -0.01 -1.7 128.29 -1.31 0 1.7zm-136.65 -136.65l-1.31 128.28 1.7 0.01 1.31 -128.29 -1.7 0zm-8.34 119.03l0.05 -57.3 -1.7 0 -0.05 57.3 1.7 0zm-10.19 -11.34l0.26 -26.32 -1.7 -0.02 -0.26 26.33 1.7 0.01zm47.49 47.49l26.32 -0.26 0.02 1.7 -26.33 0.26 -0.01 -1.7z"/>
  <path fill="#2B2A29" d="M631.03 367.01l-57.3 0.05 0 -1.7 57.3 -0.05 0 1.7zm-119.03 8.34l128.28 -1.31 0.01 1.7 -128.29 1.31 0 -1.7zm136.65 136.65l1.31 -128.28 -1.7 -0.01 -1.31 128.29 1.7 0zm8.34 -119.03l-0.05 57.3 1.7 0 0.05 -57.3 -1.7 0zm10.19 11.34l-0.26 26.32 1.7 0.02 0.26 -26.33 -1.7 -0.01zm-47.49 -47.49l-26.32 0.26 -0.02 -1.7 26.33 -0.26 0.01 1.7z"/>
  <path fill="#2B2A29" d="M631.03 656.99l-57.3 -0.05 0 1.7 57.3 0.05 0 -1.7zm-119.03 -8.34l128.28 1.31 0.01 -1.7 -128.29 -1.31 0 1.7zm136.65 -136.65l1.31 128.28 -1.7 0.01 -1.31 -128.29 1.7 0zm8.34 119.03l-0.05 -57.3 1.7 0 0.05 57.3 -1.7 0zm10.19 -11.34l-0.26 -26.32 1.7 -0.02 0.26 26.33 -1.7 0.01zm-47.49 47.49l-26.32 -0.26 -0.02 1.7 26.33 0.26 0.01 -1.7z"/>
  <polygon fill="#2B2A29" points="510.85,295.25 510.76,407.72 512,407.73 513.24,407.72 513.15,295.25 512,295.25 "/>
  <polygon fill="#2B2A29" points="510.85,728.75 510.76,616.28 512,616.27 513.24,616.28 513.15,728.75 512,728.75 "/>
  <path fill="#2B2A29" d="M410.33 368.5l8.73 9.79 1.27 -1.13 -8.73 -9.8 -1.27 1.14zm-41.83 41.83l9.79 8.73 -1.13 1.27 -9.8 -8.73 1.14 -1.27z"/>
  <path fill="#2B2A29" d="M410.33 655.5l8.73 -9.79 1.27 1.13 -8.73 9.8 -1.27 -1.14zm-41.83 -41.83l9.79 -8.73 -1.13 -1.27 -9.8 8.73 1.14 1.27z"/>
  <path fill="#2B2A29" d="M613.67 368.5l-8.73 9.79 -1.27 -1.13 8.73 -9.8 1.27 1.14zm41.83 41.83l-9.79 8.73 1.13 1.27 9.8 -8.73 -1.14 -1.27z"/>
  <path fill="#2B2A29" d="M613.67 655.5l-8.73 -9.79 -1.27 1.13 8.73 9.8 1.27 -1.14zm41.83 -41.83l-9.79 -8.73 1.13 -1.27 9.8 8.73 -1.14 1.27z"/>
  <polygon fill="#2B2A29" points="453.86,364.92 410.25,408.97 412.26,410.96 455.86,366.91 "/>
  <polygon fill="#2B2A29" points="453.86,659.08 410.25,615.03 412.26,613.04 455.86,657.09 "/>
  <polygon fill="#2B2A29" points="570.14,364.92 613.75,408.97 611.74,410.96 568.14,366.91 "/>
  <polygon fill="#2B2A29" points="570.14,659.08 613.75,615.03 611.74,613.04 568.14,657.09 "/>
  <path fill="#2B2A29" d="M512 386.36l-122.42 0.04 0.01 3.19 0.49 0.49 121.92 -0.03 0 -3.69zm-125.64 125.64l0.04 -122.42 3.19 0.01 0.49 0.49 -0.03 121.92 -3.69 0z"/>
  <path fill="#2B2A29" d="M512 637.64l-122.42 -0.04 0.01 -3.19 0.49 -0.49 121.92 0.03 0 3.69zm-125.64 -125.64l0.04 122.42 3.19 -0.01 0.49 -0.49 -0.03 -121.92 -3.69 0z"/>
  <path fill="#2B2A29" d="M512 386.36l122.42 0.04 -0.01 3.19 -0.49 0.49 -121.92 -0.03 0 -3.69zm0 251.28l122.42 -0.04 -0.01 -3.19 -0.49 -0.49 -121.92 0.03 0 3.69zm125.64 -125.64l-0.04 122.42 -3.19 -0.01 -0.49 -0.49 0.03 -121.92 -0.03 -121.92 0.49 -0.49 3.19 -0.01 0.04 122.42z"/>
  <path fill="#2B2A29" d="M458.53 388.49l-7.76 -24.33 -1.35 0.43 7.76 24.33 1.35 -0.43zm-70.04 70.04l-24.33 -7.76 0.43 -1.35 24.33 7.76 -0.43 1.35z"/>
  <path fill="#2B2A29" d="M458.53 635.51l-7.76 24.33 -1.35 -0.43 7.76 -24.33 1.35 0.43zm-70.04 -70.04l-24.33 7.76 0.43 1.35 24.33 -7.76 -0.43 -1.35z"/>
  <path fill="#2B2A29" d="M565.47 388.49l7.76 -24.33 1.35 0.43 -7.76 24.33 -1.35 -0.43zm70.04 70.04l24.33 -7.76 -0.43 -1.35 -24.33 7.76 0.43 1.35z"/>
  <path fill="#2B2A29" d="M565.47 635.51l7.76 24.33 1.35 -0.43 -7.76 -24.33 -1.35 0.43zm70.04 -70.04l24.33 7.76 -0.43 1.35 -24.33 -7.76 0.43 -1.35z"/>
  <path fill="#2B2A29" d="M512 420.47l-104.92 -32.01 -0.82 2.71 105.74 32.26 0 -2.96zm-91.53 91.53l-32.01 -104.92 2.71 -0.82 32.26 105.74 -2.96 0z"/>
  <path fill="#2B2A29" d="M512 603.53l-104.92 32.01 -0.82 -2.71 105.74 -32.26 0 2.96zm-91.53 -91.53l-32.01 104.92 2.71 0.82 32.26 -105.74 -2.96 0z"/>
  <path fill="#2B2A29" d="M512 420.47l104.92 -32.01 0.82 2.71 -105.74 32.26 0 -2.96zm91.53 91.53l32.01 -104.92 -2.71 -0.82 -32.26 105.74 2.96 0z"/>
  <path fill="#2B2A29" d="M512 603.53l104.92 32.01 0.82 -2.71 -105.74 -32.26 0 2.96zm91.53 -91.53l32.01 104.92 -2.71 0.82 -32.26 -105.74 2.96 0z"/>
  <polygon fill="#2B2A29" points="433.93,397.8 417.01,415.69 418.04,416.67 434.95,398.77 "/>
  <polygon fill="#2B2A29" points="433.93,626.2 417.01,608.31 418.04,607.33 434.95,625.23 "/>
  <polygon fill="#2B2A29" points="590.07,397.8 606.99,415.69 605.96,416.67 589.05,398.77 "/>
  <polygon fill="#2B2A29" points="590.07,626.2 606.99,608.31 605.96,607.33 589.05,625.23 "/>
  <polygon fill="#2B2A29" points="414.67,413.38 434.24,398.66 433.38,397.53 413.82,412.25 "/>
  <polygon fill="#2B2A29" points="414.67,610.62 434.24,625.34 433.38,626.47 413.82,611.75 "/>
  <polygon fill="#2B2A29" points="609.33,413.38 589.76,398.66 590.62,397.53 610.18,412.25 "/>
  <polygon fill="#2B2A29" points="609.33,610.62 589.76,625.34 590.62,626.47 610.18,611.75 "/>
  <path fill="#2B2A29" d="M434.42 398.76l6.45 42.02 2.1 -0.32 -6.44 -42.02 -2.11 0.32zm-35.66 35.66l42.02 6.45 -0.32 2.1 -42.02 -6.44 0.32 -2.11z"/>
  <path fill="#2B2A29" d="M434.42 625.24l6.45 -42.02 2.1 0.32 -6.44 42.02 -2.11 -0.32zm-35.66 -35.66l42.02 -6.45 -0.32 -2.1 -42.02 6.44 0.32 2.11z"/>
  <path fill="#2B2A29" d="M589.58 398.76l-6.45 42.02 -2.1 -0.32 6.44 -42.02 2.11 0.32zm35.66 35.66l-42.02 6.45 0.32 2.1 42.02 -6.44 -0.32 -2.11z"/>
  <path fill="#2B2A29" d="M589.58 625.24l-6.45 -42.02 -2.1 0.32 6.44 42.02 2.11 -0.32zm35.66 -35.66l-42.02 -6.45 0.32 -2.1 42.02 6.44 -0.32 2.11z"/>
  <polygon fill="#2B2A29" points="432.43,431.08 451.22,413.52 450.25,412.49 431.46,430.04 "/>
  <polygon fill="#2B2A29" points="432.43,592.92 451.22,610.48 450.25,611.51 431.46,593.96 "/>
  <polygon fill="#2B2A29" points="591.57,431.08 572.78,413.52 573.75,412.49 592.54,430.04 "/>
  <polygon fill="#2B2A29" points="591.57,592.92 572.78,610.48 573.75,611.51 592.54,593.96 "/>
  <polygon fill="#2B2A29" points="413.02,411.9 476.88,411.94 476.89,410.53 413.03,410.48 "/>
  <polygon fill="#2B2A29" points="413.02,612.1 476.88,612.06 476.89,613.47 413.03,613.52 "/>
  <polygon fill="#2B2A29" points="610.98,411.9 547.12,411.94 547.11,410.53 610.97,410.48 "/>
  <polygon fill="#2B2A29" points="610.98,612.1 547.12,612.06 547.11,613.47 610.97,613.52 "/>
  <polygon fill="#2B2A29" points="417.53,416.89 450.61,416.82 450.6,415.4 417.52,415.47 "/>
  <polygon fill="#2B2A29" points="417.53,607.11 450.61,607.18 450.6,608.6 417.52,608.53 "/>
  <polygon fill="#2B2A29" points="606.47,416.89 573.39,416.82 573.4,415.4 606.48,415.47 "/>
  <polygon fill="#2B2A29" points="606.47,607.11 573.39,607.18 573.4,608.6 606.48,608.53 "/>
  <path fill="#2B2A29" d="M425.07 424.42l54.87 -11.28 -0.43 -2.08 -54.87 11.28 0.43 2.08zm-0.65 0.65l-11.28 54.87 -2.08 -0.43 11.28 -54.87 2.08 0.43z"/>
  <path fill="#2B2A29" d="M425.07 599.58l54.87 11.28 -0.43 2.08 -54.87 -11.28 0.43 -2.08zm-0.65 -0.65l-11.28 -54.87 -2.08 0.43 11.28 54.87 2.08 -0.43z"/>
  <path fill="#2B2A29" d="M598.93 424.42l-54.87 -11.28 0.43 -2.08 54.87 11.28 -0.43 2.08zm0.65 0.65l11.28 54.87 2.08 -0.43 -11.28 -54.87 -2.08 0.43z"/>
  <path fill="#2B2A29" d="M598.93 599.58l-54.87 11.28 0.43 2.08 54.87 -11.28 -0.43 -2.08zm0.65 -0.65l11.28 -54.87 2.08 0.43 -11.28 54.87 -2.08 -0.43z"/>
  <polygon fill="#2B2A29" points="445.73,444.34 476.84,412.96 475.33,411.46 444.22,442.84 "/>
  <polygon fill="#2B2A29" points="445.73,579.66 476.84,611.04 475.33,612.54 444.22,581.16 "/>
  <polygon fill="#2B2A29" points="578.27,444.34 547.16,412.96 548.67,411.46 579.78,442.84 "/>
  <polygon fill="#2B2A29" points="578.27,579.66 547.16,611.04 548.67,612.54 579.78,581.16 "/>
  <path fill="#2B2A29" d="M451.31 450.1l60.69 -60.68 0 -3.02 -62.19 62.2 1.5 1.5zm-1.21 1.21l-60.68 60.69 -3.02 0 62.2 -62.19 1.5 1.5z"/>
  <path fill="#2B2A29" d="M451.31 573.9l60.69 60.68 0 3.02 -62.19 -62.2 1.5 -1.5zm-1.21 -1.21l-60.68 -60.69 -3.02 0 62.2 62.19 1.5 -1.5z"/>
  <path fill="#2B2A29" d="M572.69 450.1l-60.69 -60.68 0 -3.02 62.19 62.2 -1.5 1.5zm1.21 1.21l60.68 60.69 3.02 0 -62.2 -62.19 -1.5 1.5z"/>
  <path fill="#2B2A29" d="M572.69 573.9l-60.69 60.68 0 3.02 62.19 -62.2 -1.5 -1.5zm1.21 -1.21l60.68 -60.69 3.02 0 -62.2 62.19 -1.5 -1.5z"/>
  <path fill="#2B2A29" d="M476.18 411.14l-7.27 57.26 1.41 0.18 7.27 -57.25 -1.41 -0.19zm-65.04 65.04l57.26 -7.27 0.18 1.41 -57.25 7.27 -0.19 -1.41z"/>
  <path fill="#2B2A29" d="M476.18 612.86l-7.27 -57.26 1.41 -0.18 7.27 57.25 -1.41 0.19zm-65.04 -65.04l57.26 7.27 0.18 -1.41 -57.25 -7.27 -0.19 1.41z"/>
  <path fill="#2B2A29" d="M547.82 411.14l7.27 57.26 -1.41 0.18 -7.27 -57.25 1.41 -0.19zm65.04 65.04l-57.26 -7.27 -0.18 1.41 57.25 7.27 0.19 -1.41z"/>
  <path fill="#2B2A29" d="M547.82 612.86l7.27 -57.26 -1.41 -0.18 -7.27 57.25 1.41 0.19zm65.04 -65.04l-57.26 7.27 -0.18 -1.41 57.25 -7.27 0.19 1.41z"/>
  <polygon fill="#2B2A29" points="512,407.73 512.53,407.72 513.38,510.62 512,512 510.62,510.62 511.47,407.72 "/>
  <polygon fill="#2B2A29" points="512,616.27 512.53,616.28 513.38,513.38 512,512 510.62,513.38 511.47,616.28 "/>
  <polygon fill="#2B2A29" points="512,433.77 423.63,421.44 423.43,422.84 512,435.21 "/>
  <polygon fill="#2B2A29" points="512,590.23 423.63,602.56 423.43,601.16 512,588.79 "/>
  <polygon fill="#2B2A29" points="512,433.77 600.37,421.44 600.57,422.84 512,435.21 "/>
  <polygon fill="#2B2A29" points="512,590.23 600.37,602.56 600.57,601.16 512,588.79 "/>
  <polygon fill="#2B2A29" points="512,447.54 437.73,436.93 437.63,437.63 438.47,438.47 512,448.97 "/>
  <polygon fill="#2B2A29" points="512,576.46 437.73,587.07 437.63,586.37 438.47,585.53 512,575.03 "/>
  <polygon fill="#2B2A29" points="512,447.54 586.27,436.93 586.37,437.63 585.53,438.47 512,448.97 "/>
  <polygon fill="#2B2A29" points="512,576.46 586.27,587.07 586.37,586.37 585.53,585.53 512,575.03 "/>
  <path fill="#2B2A29" d="M512 443.37l-42.75 6.43 0.2 1.4 42.55 -6.39 0 -1.44zm-68.63 68.63l6.43 -42.75 1.4 0.2 -6.39 42.55 -1.44 0z"/>
  <path fill="#2B2A29" d="M512 580.63l-42.75 -6.43 0.2 -1.4 42.55 6.39 0 1.44zm-68.63 -68.63l6.43 42.75 1.4 -0.2 -6.39 -42.55 -1.44 0z"/>
  <path fill="#2B2A29" d="M512 443.37l42.75 6.43 -0.2 1.4 -42.55 -6.39 0 -1.44zm68.63 68.63l-6.43 -42.75 -1.4 0.2 6.39 42.55 1.44 0z"/>
  <path fill="#2B2A29" d="M512 580.63l42.75 -6.43 -0.2 -1.4 -42.55 6.39 0 1.44zm68.63 -68.63l-6.43 42.75 -1.4 -0.2 6.39 -42.55 1.44 0z"/>
  <polygon fill="#2B2A29" points="512,416.78 473.29,414.93 473.23,416.35 512,418.2 "/>
  <polygon fill="#2B2A29" points="512,607.22 473.29,609.07 473.23,607.65 512,605.8 "/>
  <polygon fill="#2B2A29" points="512,416.78 550.71,414.93 550.77,416.35 512,418.2 "/>
  <polygon fill="#2B2A29" points="512,607.22 550.71,609.07 550.77,607.65 512,605.8 "/>
  <path fill="#2B2A29" d="M512 459.17l-40.46 -5.72 -0.2 1.4 40.66 5.75 0 -1.43zm-52.83 52.83l-5.72 -40.46 1.4 -0.2 5.75 40.66 -1.43 0z"/>
  <path fill="#2B2A29" d="M512 564.83l-40.46 5.72 -0.2 -1.4 40.66 -5.75 0 1.43zm-52.83 -52.83l-5.72 40.46 1.4 0.2 5.75 -40.66 -1.43 0z"/>
  <path fill="#2B2A29" d="M512 459.17l40.46 -5.72 0.2 1.4 -40.66 5.75 0 -1.43zm52.83 52.83l5.72 -40.46 -1.4 -0.2 -5.75 40.66 1.43 0z"/>
  <path fill="#2B2A29" d="M512 564.83l40.46 5.72 0.2 -1.4 -40.66 -5.75 0 1.43zm52.83 -52.83l5.72 40.46 -1.4 0.2 -5.75 -40.66 1.43 0z"/>
  <path fill="#2B2A29" d="M512 457.04l-47.43 5.6 0.17 1.41 47.26 -5.58 0 -1.43zm-54.96 54.96l5.6 -47.43 1.41 0.17 -5.58 47.26 -1.43 0z"/>
  <path fill="#2B2A29" d="M512 566.96l-47.43 -5.6 0.17 -1.41 47.26 5.58 0 1.43zm-54.96 -54.96l5.6 47.43 1.41 -0.17 -5.58 -47.26 -1.43 0z"/>
  <path fill="#2B2A29" d="M512 457.04l47.43 5.6 -0.17 1.41 -47.26 -5.58 0 -1.43zm54.96 54.96l-5.6 -47.43 -1.41 0.17 5.58 47.26 1.43 0z"/>
  <path fill="#2B2A29" d="M512 566.96l47.43 -5.6 -0.17 -1.41 -47.26 5.58 0 1.43zm54.96 -54.96l-5.6 47.43 -1.41 -0.17 5.58 -47.26 1.43 0z"/>
  <path fill="#2B2A29" d="M512 468.86l-46.64 -5.42 -0.17 1.41 46.81 5.43 0 -1.42zm-43.14 43.14l-5.42 -46.64 1.41 -0.17 5.43 46.81 -1.42 0z"/>
  <path fill="#2B2A29" d="M512 555.14l-46.64 5.42 -0.17 -1.41 46.81 -5.43 0 1.42zm-43.14 -43.14l-5.42 46.64 1.41 0.17 5.43 -46.81 -1.42 0z"/>
  <path fill="#2B2A29" d="M512 468.86l46.64 -5.42 0.17 1.41 -46.81 5.43 0 -1.42zm43.14 43.14l5.42 -46.64 -1.41 -0.17 -5.43 46.81 1.42 0z"/>
  <path fill="#2B2A29" d="M512 555.14l46.64 5.42 0.17 -1.41 -46.81 -5.43 0 1.42zm43.14 -43.14l5.42 46.64 -1.41 0.17 -5.43 -46.81 1.42 0z"/>
  <path fill="#2B2A29" d="M512 465.58l-39.08 6.06 0.22 1.4 38.86 -6.03 0 -1.43zm-46.42 46.42l6.06 -39.08 1.4 0.22 -6.03 38.86 -1.43 0z"/>
  <path fill="#2B2A29" d="M512 558.42l-39.08 -6.06 0.22 -1.4 38.86 6.03 0 1.43zm-46.42 -46.42l6.06 39.08 1.4 -0.22 -6.03 -38.86 -1.43 0z"/>
  <path fill="#2B2A29" d="M512 465.58l39.08 6.06 -0.22 1.4 -38.86 -6.03 0 -1.43zm46.42 46.42l-6.06 -39.08 -1.4 0.22 6.03 38.86 1.43 0z"/>
  <path fill="#2B2A29" d="M512 558.42l39.08 -6.06 -0.22 -1.4 -38.86 6.03 0 1.43zm46.42 -46.42l-6.06 39.08 -1.4 -0.22 6.03 -38.86 1.43 0z"/>
  <path fill="#2B2A29" d="M512 500.53l-10.26 -0.06 -0.01 1.26 0.16 0.16 10.11 0.06 0 -1.42zm-11.47 11.47l-0.06 -10.26 1.26 -0.01 0.16 0.16 0.06 10.11 -1.42 0z"/>
  <path fill="#2B2A29" d="M512 523.47l-10.26 0.06 -0.01 -1.26 0.16 -0.16 10.11 -0.06 0 1.42zm-11.47 -11.47l-0.06 10.26 1.26 0.01 0.16 -0.16 0.06 -10.11 -1.42 0z"/>
  <path fill="#2B2A29" d="M512 500.53l10.26 -0.06 0.01 1.26 -0.16 0.16 -10.11 0.06 0 -1.42zm11.47 11.47l0.06 -10.26 -1.26 -0.01 -0.16 0.16 -0.06 10.11 1.42 0z"/>
  <path fill="#2B2A29" d="M512 523.47l10.26 0.06 0.01 -1.26 -0.16 -0.16 -10.11 -0.06 0 1.42zm11.47 -11.47l0.06 10.26 -1.26 0.01 -0.16 -0.16 -0.06 -10.11 1.42 0z"/>
  <path fill="#2B2A29" d="M512 481.9l-27.87 0.78 0.04 1.49 0.06 0.06 27.77 -0.77 0 -1.56zm-30.1 30.1l0.78 -27.87 1.49 0.04 0.06 0.06 -0.77 27.77 -1.56 0z"/>
  <path fill="#2B2A29" d="M512 542.1l-27.87 -0.78 0.04 -1.49 0.06 -0.06 27.77 0.77 0 1.56zm-30.1 -30.1l0.78 27.87 1.49 -0.04 0.06 -0.06 -0.77 -27.77 -1.56 0z"/>
  <path fill="#2B2A29" d="M512 481.9l27.87 0.78 -0.04 1.49 -0.06 0.06 -27.77 -0.77 0 -1.56zm30.1 30.1l-0.78 -27.87 -1.49 0.04 -0.06 0.06 0.77 27.77 1.56 0z"/>
  <path fill="#2B2A29" d="M512 542.1l27.87 -0.78 -0.04 -1.49 -0.06 -0.06 -27.77 0.77 0 1.56zm30.1 -30.1l-0.78 27.87 -1.49 -0.04 -0.06 -0.06 0.77 -27.77 1.56 0z"/>
  <path fill="#2B2A29" d="M512 477.24l-32.66 0.82 0.04 1.32 0.24 0.24 32.38 -0.82 0 -1.56zm-34.76 34.76l0.82 -32.66 1.32 0.04 0.24 0.24 -0.82 32.38 -1.56 0z"/>
  <path fill="#2B2A29" d="M512 546.76l-32.66 -0.82 0.04 -1.32 0.24 -0.24 32.38 0.82 0 1.56zm-34.76 -34.76l0.82 32.66 1.32 -0.04 0.24 -0.24 -0.82 -32.38 -1.56 0z"/>
  <path fill="#2B2A29" d="M512 477.24l32.66 0.82 -0.04 1.32 -0.24 0.24 -32.38 -0.82 0 -1.56zm34.76 34.76l-0.82 -32.66 -1.32 0.04 -0.24 0.24 0.82 32.38 1.56 0z"/>
  <path fill="#2B2A29" d="M512 546.76l32.66 -0.82 -0.04 -1.32 -0.24 -0.24 -32.38 0.82 0 1.56zm34.76 -34.76l-0.82 32.66 -1.32 -0.04 -0.24 -0.24 0.82 -32.38 1.56 0z"/>
  <path fill="#2B2A29" d="M512 551.13l-37.47 -0.04 0 -1.62 0.23 -0.23 37.24 0.04 0 1.85zm-39.13 -39.13l0.04 37.47 1.62 0 0.23 -0.23 -0.04 -37.24 -1.85 0zm39.13 39.13l37.47 -0.04 0 -1.62 -0.23 -0.23 -37.24 0.04 0 1.85zm39.13 -39.13l-0.04 37.47 -1.62 0 -0.23 -0.23 0.04 -37.24 1.85 0zm-39.13 -39.13l37.47 0.04 0 1.62 -0.23 0.23 -37.24 -0.04 0 -1.85zm39.13 39.13l-0.04 -37.47 -1.62 0 -0.23 0.23 0.04 37.24 1.85 0zm-39.13 -39.13l-37.47 0.04 0 1.62 0.23 0.23 37.24 -0.04 0 -1.85zm-39.13 39.13l0.04 -37.47 1.62 0 0.23 0.23 -0.04 37.24 -1.85 0z"/>
  <path fill="#2B2A29" d="M495.76 473.63l12.25 34.38 0.73 0.73 0.99 -0.12 -12.64 -35.47 -1.33 0.48zm-22.13 22.13l34.38 12.25 0.73 0.73 -0.07 1.01 -35.52 -12.66 0.48 -1.33z"/>
  <path fill="#2B2A29" d="M495.76 550.37l12.25 -34.38 0.73 -0.73 0.99 0.12 -12.64 35.47 -1.33 -0.48zm-22.13 -22.13l34.38 -12.25 0.73 -0.73 -0.07 -1.01 -35.52 12.66 0.48 1.33z"/>
  <path fill="#2B2A29" d="M528.24 473.63l-12.25 34.38 -0.73 0.73 -0.99 -0.12 12.64 -35.47 1.33 0.48zm22.13 22.13l-34.38 12.25 -0.73 0.73 0.07 1.01 35.52 -12.66 -0.48 -1.33z"/>
  <path fill="#2B2A29" d="M528.24 550.37l-12.25 -34.38 -0.73 -0.73 -0.99 0.12 12.64 35.47 1.33 -0.48zm22.13 -22.13l-34.38 -12.25 -0.73 -0.73 0.07 -1.01 35.52 12.66 -0.48 1.33z"/>
  <path fill="#2B2A29" d="M512 489.94l-20.41 0.16 0.01 1.42 20.4 -0.16 0 -1.42zm-22.06 22.06l0.16 -20.41 1.42 0.01 -0.16 20.4 -1.42 0z"/>
  <path fill="#2B2A29" d="M512 534.06l-20.41 -0.16 0.01 -1.42 20.4 0.16 0 1.42zm-22.06 -22.06l0.16 20.41 1.42 -0.01 -0.16 -20.4 -1.42 0z"/>
  <path fill="#2B2A29" d="M512 489.94l20.41 0.16 -0.01 1.42 -20.4 -0.16 0 -1.42zm22.06 22.06l-0.16 -20.41 -1.42 0.01 0.16 20.4 1.42 0z"/>
  <path fill="#2B2A29" d="M512 534.06l20.41 -0.16 -0.01 -1.42 -20.4 0.16 0 1.42zm22.06 -22.06l-0.16 20.41 -1.42 -0.01 0.16 -20.4 1.42 0z"/>
  <path fill="#2B2A29" d="M512 492.43l-18.11 0.02 0.01 1.42 18.1 -0.02 0 -1.42zm-19.57 19.57l0.02 -18.11 1.42 0.01 -0.02 18.1 -1.42 0z"/>
  <path fill="#2B2A29" d="M512 531.57l-18.11 -0.02 0.01 -1.42 18.1 0.02 0 1.42zm-19.57 -19.57l0.02 18.11 1.42 -0.01 -0.02 -18.1 -1.42 0z"/>
  <path fill="#2B2A29" d="M512 492.43l18.11 0.02 -0.01 1.42 -18.1 -0.02 0 -1.42zm19.57 19.57l-0.02 -18.11 -1.42 0.01 0.02 18.1 1.42 0z"/>
  <path fill="#2B2A29" d="M512 531.57l18.11 -0.02 -0.01 -1.42 -18.1 0.02 0 1.42zm19.57 -19.57l-0.02 18.11 -1.42 -0.01 0.02 -18.1 1.42 0z"/>
  <path fill="#2B2A29" d="M512 498.68l-12.15 0 0 1.13 12.15 0 0 -1.13zm-13.32 13.32l0 -12.15 1.13 0 0 12.15 -1.13 0z"/>
  <path fill="#2B2A29" d="M512 525.32l-12.15 0 0 -1.13 12.15 0 0 1.13zm-13.32 -13.32l0 12.15 1.13 0 0 -12.15 -1.13 0z"/>
  <path fill="#2B2A29" d="M512 498.68l12.15 0 0 1.13 -12.15 0 0 -1.13zm13.32 13.32l0 -12.15 -1.13 0 0 12.15 1.13 0z"/>
  <path fill="#2B2A29" d="M512 525.32l12.15 0 0 -1.13 -12.15 0 0 1.13zm13.32 -13.32l0 12.15 -1.13 0 0 -12.15 1.13 0z"/>
  <path fill="#2B2A29" d="M512 563.6l-49.42 -0.05 0.01 -2.14 0.29 -0.29 49.12 0.05 0 2.43zm-51.6 -51.6l0.05 49.42 2.14 -0.01 0.29 -0.29 -0.05 -49.12 -2.43 0zm51.6 51.6l49.42 -0.05 -0.01 -2.14 -0.29 -0.29 -49.12 0.05 0 2.43zm51.6 -51.6l-0.05 49.42 -2.14 -0.01 -0.29 -0.29 0.05 -49.12 2.43 0zm-51.6 -51.6l49.42 0.05 -0.01 2.14 -0.29 0.29 -49.12 -0.05 0 -2.43zm51.6 51.6l-0.05 -49.42 -2.14 0.01 -0.29 0.29 0.05 49.12 2.43 0zm-51.6 -51.6l-49.42 0.05 0.01 2.14 0.29 0.29 49.12 -0.05 0 -2.43zm-51.6 51.6l0.05 -49.42 2.14 0.01 0.29 0.29 -0.05 49.12 -2.43 0z"/>
  <path fill="#2B2A29" d="M512 555.09l-41.27 -0.05 0.01 -1.78 0.25 -0.25 41.01 0.05 0 2.03zm-43.09 -43.09l0.05 41.27 1.78 -0.01 0.25 -0.25 -0.05 -41.01 -2.03 0zm43.09 43.09l41.27 -0.05 -0.01 -1.78 -0.25 -0.25 -41.01 0.05 0 2.03zm43.09 -43.09l-0.05 41.27 -1.78 -0.01 -0.25 -0.25 0.05 -41.01 2.03 0zm-43.09 -43.09l41.27 0.05 -0.01 1.78 -0.25 0.25 -41.01 -0.05 0 -2.03zm43.09 43.09l-0.05 -41.27 -1.78 0.01 -0.25 0.25 0.05 41.01 2.03 0zm-43.09 -43.09l-41.27 0.05 0.01 1.78 0.25 0.25 41.01 -0.05 0 -2.03zm-43.09 43.09l0.05 -41.27 1.78 0.01 0.25 0.25 -0.05 41.01 -2.03 0z"/>
  <path fill="#2B2A29" d="M512 558.81l-44.83 -0.05 0.01 -1.94 0.26 -0.26 44.56 0.05 0 2.2zm-46.81 -46.81l0.05 44.83 1.94 -0.01 0.26 -0.26 -0.05 -44.56 -2.2 0zm46.81 46.81l44.83 -0.05 -0.01 -1.94 -0.26 -0.26 -44.56 0.05 0 2.2zm46.81 -46.81l-0.05 44.83 -1.94 -0.01 -0.26 -0.26 0.05 -44.56 2.2 0zm-46.81 -46.81l44.83 0.05 -0.01 1.94 -0.26 0.26 -44.56 -0.05 0 -2.2zm46.81 46.81l-0.05 -44.83 -1.94 0.01 -0.26 0.26 0.05 44.56 2.2 0zm-46.81 -46.81l-44.83 0.05 0.01 1.94 0.26 0.26 44.56 -0.05 0 -2.2zm-46.81 46.81l0.05 -44.83 1.94 0.01 0.26 0.26 -0.05 44.56 -2.2 0z"/>
  <rect fill="#2B2A29" x="507.59" y="1.32" width="8.83" height="248.26"/>
  <path fill="#2B2A29" d="M507.59 249.58l8.82 0 0 -248.26 -8.82 0 0 248.26zm0 773.1l8.82 0 0 -248.26 -8.82 0 0 248.26zm-258.01 -506.27l0 -8.82 -248.26 0 0 8.82 248.26 0zm773.1 0l0 -8.82 -248.26 0 0 8.82 248.26 0z"/>
 </g>
</svg>