<svg width="260" height="261" viewBox="0 0 260 261" fill="none" xmlns="http://www.w3.org/2000/svg" data-created-by="witha">
<g clip-path="url(#clip0_237_656)">
<rect width="260" height="260" transform="translate(0 0.210938)" fill="black"/>
<path d="M232.888 140.34V155.852H197.093V140.34H232.888Z" fill="url(#paint0_linear_237_656)"/>
<path fill-rule="evenodd" clip-rule="evenodd" d="M196.719 171.811L215 103.893L233.281 171.811H249.236L226.736 88.2197H219.219H210.781H203.264L180.764 171.811H196.719Z" fill="white"/>
<path d="M179.219 88.2201L156.719 171.811H140.764L163.264 88.2201H179.219Z" fill="white"/>
<path fill-rule="evenodd" clip-rule="evenodd" d="M33.2812 171.811L10.7812 88.2197H26.7358L45 156.074L63.2642 88.2197H70.7812H79.2188H86.7358L105 156.074L123.264 88.2197H139.219L116.719 171.811H109.236H100.764H93.2812L75 103.893L56.7188 171.811H49.2358H40.7642H33.2812Z" fill="white"/>
</g>
<defs>
<linearGradient id="paint0_linear_237_656" x1="215" y1="147.866" x2="215" y2="148.366" gradientUnits="userSpaceOnUse">
<stop offset="0.9999" stop-color="white"/>
<stop offset="1" stop-color="white" stop-opacity="0.5"/>
</linearGradient>
<clipPath id="clip0_237_656">
<rect y="0.210938" width="260" height="260" rx="57.54" fill="white"/>
</clipPath>
</defs>
</svg>